<?xml version="1.0" encoding="UTF-8" standalone="no"?>
<svg
   xmlns:dc="http://purl.org/dc/elements/1.1/"
   xmlns:cc="http://creativecommons.org/ns#"
   xmlns:rdf="http://www.w3.org/1999/02/22-rdf-syntax-ns#"
   xmlns:svg="http://www.w3.org/2000/svg"
   xmlns="http://www.w3.org/2000/svg"
   xmlns:sodipodi="http://sodipodi.sourceforge.net/DTD/sodipodi-0.dtd"
   xmlns:inkscape="http://www.inkscape.org/namespaces/inkscape"
   height="459"
   version="1.1"
   width="588"
   id="svg2"
   inkscape:version="0.91 r13725"
   sodipodi:docname="tankBodyRaw.svg">
  <metadata
     id="metadata44">
    <rdf:RDF>
      <cc:Work
         rdf:about="">
        <dc:format>image/svg+xml</dc:format>
        <dc:type
           rdf:resource="http://purl.org/dc/dcmitype/StillImage" />
        <dc:title></dc:title>
      </cc:Work>
    </rdf:RDF>
  </metadata>
  <defs
     id="defs42" />
  <sodipodi:namedview
     pagecolor="#ffffff"
     bordercolor="#666666"
     borderopacity="1"
     objecttolerance="10"
     gridtolerance="10"
     guidetolerance="10"
     inkscape:pageopacity="0"
     inkscape:pageshadow="2"
     inkscape:window-width="720"
     inkscape:window-height="480"
     id="namedview40"
     showgrid="false"
     inkscape:zoom="0.51416122"
     inkscape:cx="294"
     inkscape:cy="229.5"
     inkscape:window-x="0"
     inkscape:window-y="0"
     inkscape:window-maximized="0"
     inkscape:current-layer="svg2" />
  <g
     id="RenderLayer_LineSet"
     inkscape:groupmode="lineset"
     inkscape:label="RenderLayer_LineSet">
    <g
       id="strokes"
       inkscape:groupmode="layer"
       inkscape:label="strokes">
      <path
         d=" M 258.811, 91.752 258.783, 91.471 258.098, 86.448 257.351, 82.660 256.572, 80.364 255.797, 79.769 245.797, 79.769 235.797, 79.769 225.797, 79.769 215.797, 79.769 205.797, 79.769 195.797, 79.769 188.351, 79.769 186.337, 81.012 184.570, 84.129 183.163, 89.032 182.215, 95.496 181.796, 103.166 181.802, 113.166 181.804, 117.475 "
         fill="none"
         stroke="rgb(0, 0, 0)"
         stroke-linecap="butt"
         stroke-linejoin="mitter"
         stroke-opacity="1.0"
         stroke-width="3.0"
         id="path6" />
      <path
         d=" M 181.930, 342.712 181.935, 352.712 181.937, 355.544 182.627, 362.689 183.815, 368.454 185.415, 372.544 187.321, 374.799 189.413, 375.191 199.413, 375.191 204.077, 375.191 "
         fill="none"
         stroke="rgb(0, 0, 0)"
         stroke-linecap="butt"
         stroke-linejoin="mitter"
         stroke-opacity="1.0"
         stroke-width="3.0"
         id="path8" />
      <path
         d=" M 253.780, 91.692 253.921, 89.032 254.430, 84.129 255.069, 81.012 255.797, 79.769 "
         fill="none"
         stroke="rgb(0, 0, 0)"
         stroke-linecap="butt"
         stroke-linejoin="mitter"
         stroke-opacity="1.0"
         stroke-width="3.0"
         id="path10" />
      <path
         d=" M 406.674, 119.138 406.679, 109.138 406.682, 103.166 406.261, 95.496 405.310, 89.032 403.897, 84.129 402.122, 81.012 400.100, 79.769 390.100, 79.769 380.100, 79.769 370.100, 79.769 360.100, 79.769 350.100, 79.769 340.100, 79.769 332.653, 79.769 331.870, 80.364 331.081, 82.660 330.325, 86.448 329.632, 91.471 329.604, 91.747 "
         fill="none"
         stroke="rgb(0, 0, 0)"
         stroke-linecap="butt"
         stroke-linejoin="mitter"
         stroke-opacity="1.0"
         stroke-width="3.0"
         id="path12" />
      <path
         d=" M 370.474, 375.191 380.474, 375.191 390.474, 375.191 399.033, 375.191 401.134, 374.799 403.048, 372.544 404.655, 368.454 405.848, 362.689 406.541, 355.544 406.547, 345.544 406.549, 341.087 "
         fill="none"
         stroke="rgb(0, 0, 0)"
         stroke-linecap="butt"
         stroke-linejoin="mitter"
         stroke-opacity="1.0"
         stroke-width="3.0"
         id="path14" />
      <path
         d=" M 332.653, 79.769 333.390, 81.012 334.037, 84.129 334.551, 89.032 334.694, 91.687 "
         fill="none"
         stroke="rgb(0, 0, 0)"
         stroke-linecap="butt"
         stroke-linejoin="mitter"
         stroke-opacity="1.0"
         stroke-width="3.0"
         id="path16" />
      <path
         d=" M 362.808, 362.533 361.843, 361.212 360.947, 361.062 350.947, 361.062 340.947, 361.062 334.805, 361.062 329.328, 361.062 319.328, 361.062 309.328, 361.062 299.328, 361.062 289.328, 361.062 279.328, 361.062 269.328, 361.062 259.084, 361.062 253.671, 361.062 243.671, 361.062 235.168, 361.062 227.053, 361.062 226.157, 361.212 225.192, 362.533 224.198, 365.015 223.373, 368.041 223.225, 368.585 222.320, 373.108 222.080, 374.722 222.073, 374.770 222.010, 375.191 221.536, 378.383 220.917, 384.148 220.504, 390.097 220.322, 395.898 220.366, 399.790 220.383, 401.223 220.683, 405.771 221.203, 409.301 221.910, 411.638 222.760, 412.693 232.760, 412.693 242.760, 412.693 252.760, 412.693 262.760, 412.693 272.760, 412.693 282.760, 412.693 292.760, 412.693 302.760, 412.693 312.760, 412.693 322.760, 412.693 332.760, 412.693 342.760, 412.693 352.760, 412.693 362.760, 412.693 365.240, 412.693 366.090, 411.638 366.797, 409.301 367.317, 405.772 367.617, 401.223 367.630, 400.080 367.678, 395.898 367.496, 390.097 367.083, 384.148 366.464, 378.383 365.990, 375.191 365.918, 374.708 365.680, 373.108 364.775, 368.585 364.627, 368.041 363.802, 365.015 362.808, 362.533 "
         fill="none"
         stroke="rgb(0, 0, 0)"
         stroke-linecap="butt"
         stroke-linejoin="mitter"
         stroke-opacity="1.0"
         stroke-width="3.0"
         id="path18" />
      <path
         d=" M 213.052, 360.887 210.053, 365.023 208.215, 367.835 207.395, 369.088 205.615, 371.902 204.077, 375.191 203.689, 376.023 202.837, 379.371 202.460, 383.666 202.716, 387.117 204.077, 390.148 206.773, 394.277 208.882, 396.268 215.267, 398.984 217.074, 399.476 220.366, 399.790 "
         fill="none"
         stroke="rgb(0, 0, 0)"
         stroke-linecap="butt"
         stroke-linejoin="mitter"
         stroke-opacity="1.0"
         stroke-width="3.0"
         id="path20" />
      <path
         d=" M 399.270, 389.130 396.530, 386.958 393.535, 384.264 389.316, 381.239 386.840, 379.936 381.114, 377.389 372.948, 375.453 370.474, 375.191 365.918, 374.708 "
         fill="none"
         stroke="rgb(0, 0, 0)"
         stroke-linecap="butt"
         stroke-linejoin="mitter"
         stroke-opacity="1.0"
         stroke-width="3.0"
         id="path22" />
      <path
         d=" M 367.630, 400.080 371.111, 400.501 375.980, 401.833 "
         fill="none"
         stroke="rgb(0, 0, 0)"
         stroke-linecap="butt"
         stroke-linejoin="mitter"
         stroke-opacity="1.0"
         stroke-width="3.0"
         id="path24" />
      <path
         d=" M 374.746, 401.160 375.980, 401.833 377.259, 402.532 379.520, 404.594 382.178, 407.548 386.177, 411.275 392.914, 415.394 394.973, 416.319 404.219, 419.669 "
         fill="none"
         stroke="rgb(0, 0, 0)"
         stroke-linecap="butt"
         stroke-linejoin="mitter"
         stroke-opacity="1.0"
         stroke-width="3.0"
         id="path26" />
      <path
         d=" M 406.643, 391.669 400.551, 389.802 399.270, 389.130 396.586, 387.721 "
         fill="none"
         stroke="rgb(0, 0, 0)"
         stroke-linecap="butt"
         stroke-linejoin="mitter"
         stroke-opacity="1.0"
         stroke-width="3.0"
         id="path28" />
      <path
         d=" M 408.161, 394.350 408.551, 397.353 408.644, 401.116 408.433, 405.302 407.934, 409.537 407.190, 413.435 406.265, 416.625 405.241, 418.784 404.219, 419.669 403.300, 419.156 402.583, 417.264 402.147, 414.166 402.043, 410.178 402.281, 405.726 402.834, 401.284 403.641, 397.317 404.612, 394.223 405.647, 392.289 406.643, 391.669 407.506, 392.389 408.161, 394.350 "
         fill="none"
         stroke="rgb(0, 0, 0)"
         stroke-linecap="butt"
         stroke-linejoin="mitter"
         stroke-opacity="1.0"
         stroke-width="3.0"
         id="path30" />
      <path
         d=" M 191.410, 100.858 189.419, 102.941 185.644, 107.622 183.657, 111.024 181.804, 117.475 180.780, 121.041 178.731, 130.828 178.108, 133.804 176.766, 143.714 175.855, 150.444 175.117, 160.416 174.378, 170.389 174.259, 171.989 173.903, 181.983 173.547, 191.976 173.353, 197.436 173.279, 207.435 173.205, 217.435 173.145, 225.611 173.305, 235.610 173.465, 245.609 173.619, 255.248 173.994, 265.241 174.369, 275.234 174.738, 285.054 175.448, 295.029 176.158, 305.004 176.686, 312.426 177.975, 322.342 179.265, 332.259 179.594, 334.789 181.930, 342.712 183.454, 347.882 185.685, 352.667 189.070, 356.352 192.538, 360.128 196.709, 363.312 198.055, 364.340 202.857, 367.762 208.215, 367.835 "
         fill="none"
         stroke="rgb(0, 0, 0)"
         stroke-linecap="butt"
         stroke-linejoin="mitter"
         stroke-opacity="1.0"
         stroke-width="3.0"
         id="path32" />
      <path
         d=" M 399.131, 104.298 396.590, 100.858 392.139, 94.833 391.177, 93.744 387.734, 89.845 377.741, 90.216 367.748, 90.587 365.100, 90.685 355.107, 91.073 345.115, 91.461 341.331, 91.608 334.694, 91.687 329.604, 91.747 319.605, 91.866 317.658, 91.889 307.658, 91.881 297.658, 91.872 294.000, 91.869 284.000, 91.877 274.000, 91.886 270.342, 91.889 260.342, 91.770 258.811, 91.752 253.780, 91.692 246.669, 91.608 236.677, 91.220 226.684, 90.832 222.900, 90.685 212.907, 90.314 202.914, 89.944 200.266, 89.845 197.137, 93.388 195.861, 94.833 191.410, 100.858 188.869, 104.298 "
         fill="none"
         stroke="rgb(0, 0, 0)"
         stroke-linecap="butt"
         stroke-linejoin="mitter"
         stroke-opacity="1.0"
         stroke-width="3.0"
         id="path34" />
      <path
         d=" M 364.627, 368.041 374.626, 367.905 384.625, 367.769 385.143, 367.762 389.945, 364.340 391.624, 363.059 395.462, 360.128 398.930, 356.352 402.315, 352.667 404.546, 347.882 406.549, 341.087 408.406, 334.789 409.696, 324.873 410.985, 314.956 411.314, 312.426 412.024, 302.451 412.734, 292.476 413.262, 285.054 413.637, 275.061 414.012, 265.068 414.381, 255.248 414.541, 245.249 414.701, 235.250 414.855, 225.611 414.781, 215.611 414.708, 205.612 414.647, 197.436 414.291, 187.442 413.935, 177.448 413.741, 171.989 413.002, 162.016 412.263, 152.044 412.145, 150.444 410.803, 140.534 409.892, 133.804 407.843, 124.016 407.220, 121.041 406.674, 119.138 404.343, 111.024 402.356, 107.622 398.581, 102.941 396.590, 100.858 "
         fill="none"
         stroke="rgb(0, 0, 0)"
         stroke-linecap="butt"
         stroke-linejoin="mitter"
         stroke-opacity="1.0"
         stroke-width="3.0"
         id="path36" />
      <path
         d=" M 222.080, 374.722 219.562, 373.811 "
         fill="none"
         stroke="rgb(0, 0, 0)"
         stroke-linecap="butt"
         stroke-linejoin="mitter"
         stroke-opacity="1.0"
         stroke-width="3.0"
         id="path38" />
    </g>
  </g>
</svg>
