<?xml version="1.0" encoding="UTF-8" standalone="no"?>
<svg
   xmlns:svg="http://www.w3.org/2000/svg"
   xmlns="http://www.w3.org/2000/svg"
   xmlns:sodipodi="http://sodipodi.sourceforge.net/DTD/sodipodi-0.dtd"
   xmlns:inkscape="http://www.inkscape.org/namespaces/inkscape"
   id="svg3495"
   width="249.99962"
   version="1.1"
   height="349.99997"
   inkscape:version="0.91 r13725"
   sodipodi:docname="Tank Clean.svg">
  <sodipodi:namedview
     pagecolor="#ffffff"
     bordercolor="#666666"
     borderopacity="1"
     objecttolerance="10"
     gridtolerance="10"
     guidetolerance="10"
     inkscape:pageopacity="0"
     inkscape:pageshadow="2"
     inkscape:window-width="1440"
     inkscape:window-height="792"
     id="namedview69"
     showgrid="false"
     inkscape:showpageshadow="false"
     fit-margin-top="0"
     fit-margin-left="0"
     fit-margin-right="0"
     fit-margin-bottom="0"
     inkscape:zoom="1.0502891"
     inkscape:cx="75.103412"
     inkscape:cy="224.50901"
     inkscape:window-x="0"
     inkscape:window-y="0"
     inkscape:window-maximized="0"
     inkscape:current-layer="svg3495" />
  <defs
     id="defs4" />
  <g
     id="tank-body">
    <path
       inkscape:connector-curvature="0"
       style="fill:#b9b9b9;fill-opacity:1;fill-rule:evenodd;stroke:none;stroke-width:1px;stroke-linecap:butt;stroke-linejoin:miter;stroke-opacity:1"
       d="m 237.45814,39.555743 0.84241,-19.741 -3.36962,-15.22877 -1.6848,-2.53813 -69.63862,-0.28201 -3.08881,5.35827 0,5.35827 54.19457,-0.84605 3.36963,0.84605 11.79362,13.81869 z"
       id="path4470" />
    <path
       inkscape:connector-curvature="0"
       id="path4174"
       d="m 238.86968,43.318464 c 0,0 0.90883,-34.2284 -5.45298,-41.074086 L 162.98236,1.788013 c 0,0 -2.72649,3.651032 -2.72649,11.409461"
       style="fill:none;fill-opacity:1;fill-rule:evenodd;stroke:#000000;stroke-width:3.56443357;stroke-linecap:butt;stroke-linejoin:miter;stroke-miterlimit:4;stroke-dasharray:none;stroke-opacity:1" />
    <path
       inkscape:connector-curvature="0"
       id="path4466"
       d="m 29.719665,13.302418 c 0,0 -23.1495733,18.302887 -24.6272027,56.88735 C 3.6148227,108.77421 3.6148227,203.25665 3.6148227,203.25665 c 0,0 -0.4925397,49.46725 6.8956193,64.80209 7.388167,15.33486 12.806145,22.75495 19.701761,25.72299 6.895618,2.96803 21.179402,3.95736 21.179402,3.95736 l 4.925437,-8.90409 136.434708,0 3.94034,8.40943 22.65705,-2.96803 c 0,0 19.2092,-3.95738 27.58245,-68.26481 l -1.47762,-157.305841 -8.86581,-29.185686 -7.8807,-17.313536 -6.89562,-10.38813 -32.01536,2.473372 -61.568,0.989338 -76.344335,-2.473358 z"
       style="fill:#00ae3a;fill-opacity:1;fill-rule:evenodd;stroke:none;stroke-width:1px;stroke-linecap:butt;stroke-linejoin:miter;stroke-opacity:1" />
    <path
       inkscape:connector-curvature="0"
       id="path4468"
       d="M 10.854217,40.119773 10.011814,20.378782 13.381427,5.15 15.066231,2.611867 84.704853,2.32986 l 3.088812,5.358272 0,5.358273 -54.194574,-0.84605 -3.369611,0.84605 -11.793638,13.818691 z"
       style="fill:#b9b9b9;fill-opacity:1;fill-rule:evenodd;stroke:none;stroke-width:1px;stroke-linecap:butt;stroke-linejoin:miter;stroke-opacity:1" />
    <path
       inkscape:connector-curvature="0"
       id="path4472"
       d="m 13.100625,275.88375 -1.684805,10.99856 1.684805,11.56257 1.684805,4.23024 14.601646,0 5.896819,0.56401 2.80801,-6.48633 -4.212014,-1.97409 -7.020023,-1.69208 -5.616016,-5.07627 -4.492815,-7.8964 z"
       style="fill:#b9b9b9;fill-opacity:1;fill-rule:evenodd;stroke:none;stroke-width:1px;stroke-linecap:butt;stroke-linejoin:miter;stroke-opacity:1" />
    <path
       inkscape:connector-curvature="0"
       style="fill:#b9b9b9;fill-opacity:1;fill-rule:evenodd;stroke:none;stroke-width:1px;stroke-linecap:butt;stroke-linejoin:miter;stroke-opacity:1"
       d="m 236.55178,274.28843 1.68479,10.99856 -1.68479,11.56259 -1.68481,4.2302 -14.60164,0 -10.10885,0.28204 -10.67042,-4.23023 16.28645,-3.9482 7.02,-1.69208 5.61603,-5.07626 4.49282,-7.89641 z"
       id="path4474" />
    <path
       inkscape:connector-curvature="0"
       id="path4476"
       d="m 38.492252,296.40658 -3.970132,6.83534 -1.701492,10.25304"
       style="fill:none;fill-rule:evenodd;stroke:#000000;stroke-width:1.01840961px;stroke-linecap:butt;stroke-linejoin:miter;stroke-opacity:1" />
    <path
       inkscape:connector-curvature="0"
       id="path4478"
       d="m 39.36248,296.21196 -5.013045,9.46528 -1.8047,7.65274 3.208347,8.25695 1.00261,3.02082 5.013056,2.81944 8.020884,3.4236 1.002609,9.26388 5.213578,0.80556 137.357661,1.20833 3.20835,-0.60416 3.00783,-7.45137 0.8021,-4.63195 7.01827,0.60416 3.60938,1.6111 4.612,5.84028 3.20837,3.22222 5.21357,3.42361 3.60941,2.41666 4.81253,1.8125 4.612,-1.61112 2.80732,-4.63193 2.20574,-5.03472 -0.20051,-5.63886 -1.00262,-7.04862 -1.40365,-3.02083 -1.20315,-1.20834 -7.82036,-3.22222 -9.42452,-7.65275 -5.81514,-5.43749 -5.61464,-2.61806 -6.81775,-2.41666 -6.41671,-1.00695 -3.00782,-8.05553 -135.552964,-1.00695 -3.208348,4.43054 -2.406268,4.22915 z"
       style="fill:#979797;fill-opacity:1;fill-rule:evenodd;stroke:none;stroke-width:1px;stroke-linecap:butt;stroke-linejoin:miter;stroke-opacity:1" />
    <path
       inkscape:connector-curvature="0"
       id="path4481"
       d="m 237.76148,320.67443 c 0,0 -8.25411,0.45219 -9.15456,12.2086 -0.90045,11.7564 -0.90045,9.94772 2.85144,15.07232 3.75185,5.12457 10.95542,-9.34485 10.95542,-12.81147 0,-3.46664 1.35069,-11.90713 -4.6523,-14.46945 z"
       style="display:inline;fill:#000000;fill-opacity:0.49044584;stroke:none;stroke-width:1.80599999;stroke-miterlimit:4;stroke-dasharray:none;stroke-opacity:1" />
    <path
       inkscape:connector-curvature="0"
       id="path4483"
       d="m 199.59464,312.27264 c 0,0 10.71737,3.52814 10.09339,10.09196 -0.71365,7.50701 3.0909,9.7905 3.0909,9.7905 l -12.98634,-2.88943 0.59713,-10.19445 z"
       style="display:inline;fill:#000000;fill-opacity:0.49044584;stroke:none;stroke-width:1.80599999;stroke-miterlimit:4;stroke-dasharray:none;stroke-opacity:1" />
    <path
       inkscape:connector-curvature="0"
       id="path4485"
       d="m 197.84161,332.12939 -147.373359,0 1.500748,9.45919 25.21255,0.33783 119.759611,-0.67565 z"
       style="display:inline;fill:#000000;fill-opacity:0.49044584;stroke:none;stroke-width:1.80599999;stroke-miterlimit:4;stroke-dasharray:none;stroke-opacity:1" />
    <path
       inkscape:connector-curvature="0"
       id="path4487"
       d="m 38.9125,296.70947 -1.650823,4.52168 c 0,0 3.001495,-3.01446 6.453217,-0.15074 3.45171,2.86375 4.35216,17.63463 4.35216,17.63463 l 4.202096,-20.95052 -1.350675,-1.05505 -11.855901,0.45215 z"
       style="display:inline;fill:#000000;fill-opacity:0.49044584;stroke:none;stroke-width:1.80599999;stroke-miterlimit:4;stroke-dasharray:none;stroke-opacity:1" />
    <path
       inkscape:connector-curvature="0"
       id="path4489"
       d="m 48.367203,324.74397 c 0,0 -4.202086,4.22025 -8.554256,1.05505 l 5.85292,4.37098 3.001487,0 0.150074,-5.27533 z"
       style="display:inline;fill:#000000;fill-opacity:0.49044584;stroke:none;stroke-width:1.80599999;stroke-miterlimit:4;stroke-dasharray:none;stroke-opacity:1" />
    <path
       inkscape:connector-curvature="0"
       id="path4491"
       d="m 237.61139,271.99086 0.30015,9.19409 c 0,0 -15.60775,17.78534 -15.75784,19.89546 -0.15006,2.11013 -5.55276,0.45218 -5.55276,0.45218 l -6.60328,0 -9.45471,-3.46663 4.65231,-2.11011 14.85741,-1.05507 5.2526,-5.27532 5.55279,-8.89267 z"
       style="display:inline;fill:#000000;fill-opacity:0.49044584;stroke:none;stroke-width:1.80599999;stroke-miterlimit:4;stroke-dasharray:none;stroke-opacity:1" />
    <path
       inkscape:connector-curvature="0"
       id="path4493"
       d="m 12.349274,276.66324 c 0,0 1.350675,18.23754 11.405679,22.15634 10.055013,3.9188 10.205086,4.22025 10.205086,4.22025 l 3.901936,-4.37097 0.600301,-2.5623 -9.154555,-2.71303 -6.753367,-6.93326 -7.353659,-6.93326 z"
       style="display:inline;fill:#000000;fill-opacity:0.49044584;stroke:none;stroke-width:1.80599999;stroke-miterlimit:4;stroke-dasharray:none;stroke-opacity:1" />
    <path
       inkscape:connector-curvature="0"
       id="path4495"
       d="m 231.00812,347.80461 c -2.10104,-1.80868 -3.45173,-9.19411 -3.45173,-9.19411 -5.10254,0 -15.30762,-5.87819 -15.30762,-5.87819 -1.95096,-3.61738 5.10254,10.39989 18.90943,15.52448"
       style="display:inline;fill:#000000;fill-opacity:0.49044584;stroke:none;stroke-width:1.80599999;stroke-miterlimit:4;stroke-dasharray:none;stroke-opacity:1" />
    <path
       inkscape:connector-curvature="0"
       id="path4497"
       d="m 237.46133,320.22227 c 0,0 1.65082,27.1302 -4.80238,27.2809 -6.45322,0.15074 -4.35217,-14.46942 -4.35217,-14.46942 0,0 0.75037,-10.70135 9.15455,-12.81148 z"
       style="display:inline;fill:#000000;fill-opacity:0.49044584;stroke:none;stroke-width:1.80599999;stroke-miterlimit:4;stroke-dasharray:none;stroke-opacity:1" />
    <path
       inkscape:connector-curvature="0"
       id="path4499"
       d="m 7.6969638,255.71272 2.7013382,15.37379 10.505238,15.97666 9.604779,6.93326 18.309109,3.61735 4.202094,-1.50722 3.601797,-7.23472 135.667521,0.60288 2.10106,5.72749 9.00447,0.90435 12.90642,-1.80867 8.40417,-3.01449 6.6033,-8.4405 3.60181,-7.2347 5.10253,-14.46943 -0.30014,-8.13905 c 0,0 -12.00599,30.74753 -47.42362,30.14464 -35.41762,-0.6029 -136.567969,-1.50722 -136.567969,-1.50722 0,0 -34.817331,1.80867 -48.0239072,-25.92442 z"
       style="display:inline;fill:#000000;fill-opacity:0.49044584;stroke:none;stroke-width:1.80599999;stroke-miterlimit:4;stroke-dasharray:none;stroke-opacity:1" />
    <path
       inkscape:connector-curvature="0"
       id="path4503"
       d="m 9.4295121,28.02516 c 0,0 4.9218509,-19.772495 18.5516089,-20.152729 13.629748,-0.380248 52.625992,4.182645 52.625992,4.182645 l 1.893019,-3.802411 1.135815,-4.943113 3.028831,0 1.893029,11.407205 -34.831598,-1.901199 -23.094856,-1.520964 -9.08651,8.365289 -8.329295,16.730568 -3.4074344,5.323374 z"
       style="display:inline;fill:#000000;fill-opacity:0.49044584;stroke:none;stroke-width:1.80599999;stroke-miterlimit:4;stroke-dasharray:none;stroke-opacity:1" />
    <path
       inkscape:connector-curvature="0"
       id="path4505"
       d="m 160.11402,14.336509 1.89302,-11.407206 0.37861,-0.380234 c 0,0 5.30044,1.901199 6.05767,12.547922 0,0 46.94691,-9.886241 56.03343,-6.464079 9.08649,3.422164 12.87253,26.616822 12.87253,26.616822 l -13.25114,-20.152743 -6.05767,-3.041915 -37.86042,3.802396 -14.38697,0.380249 z"
       style="display:inline;fill:#000000;fill-opacity:0.49044584;stroke:none;stroke-width:1.80599999;stroke-miterlimit:4;stroke-dasharray:none;stroke-opacity:1" />
    <path
       inkscape:connector-curvature="0"
       id="path4547"
       d="m 52.641288,297.25308 143.652622,-3.2314 4.25849,18.17673 -151.033996,1.21179 z"
       style="fill:#ffffff;fill-opacity:0.77707005;stroke:none;stroke-width:1.80599999;stroke-miterlimit:4;stroke-dasharray:none;stroke-opacity:1" />
    <path
       inkscape:connector-curvature="0"
       id="path4549"
       d="m 37.026879,306.85232 c 0,0 -3.122884,9.12399 1.419492,11.11987 4.542375,1.99588 8.23305,-0.28514 9.936441,2.28099 1.703393,2.56614 1.419492,-3.42148 1.419492,-3.42148 l -7.949161,0 c 0,0 3.406785,-13.68603 -4.826264,-9.97938 z"
       style="fill:#ffffff;fill-opacity:0.77707005;stroke:none;stroke-width:1.80599999;stroke-miterlimit:4;stroke-dasharray:none;stroke-opacity:1" />
    <path
       inkscape:connector-curvature="0"
       id="path4551"
       d="m 197.42951,300.86467 c 0,0 7.38136,-0.57025 12.77543,5.41739 5.39407,5.98763 11.92371,11.40499 21.57628,16.25214 l -1.9873,4.562 c 0,0 -13.34322,-4.56199 -17.6017,-9.97937 -3.77707,-4.80499 -6.81356,-12.2604 -12.49153,-11.69017 -5.67797,0.57027 -2.27118,-4.56199 -2.27118,-4.56199 z"
       style="fill:#ffffff;fill-opacity:0.77707005;stroke:none;stroke-width:1.80599999;stroke-miterlimit:4;stroke-dasharray:none;stroke-opacity:1" />
    <path
       inkscape:connector-curvature="0"
       style="fill:none;fill-opacity:1;fill-rule:evenodd;stroke:#000000;stroke-width:3.56443357;stroke-linecap:butt;stroke-linejoin:miter;stroke-miterlimit:4;stroke-dasharray:none;stroke-opacity:1"
       d="m 9.4350096,44.231236 c 0,0 -0.9088233,-34.228415 5.4529854,-41.0741 L 85.322327,2.700771 c 0,0 2.726488,3.651032 2.726488,11.409461"
       id="path4185" />
    <path
       inkscape:connector-curvature="0"
       id="path4187"
       d="m 163.89119,2.244392 c 0,0 4.08974,5.020155 3.63534,11.86584"
       style="fill:none;fill-rule:evenodd;stroke:#000000;stroke-width:1.73129666;stroke-linecap:butt;stroke-linejoin:miter;stroke-miterlimit:4;stroke-dasharray:none;stroke-opacity:1" />
    <path
       inkscape:connector-curvature="0"
       style="fill:none;fill-rule:evenodd;stroke:#000000;stroke-width:1.73129666;stroke-linecap:butt;stroke-linejoin:miter;stroke-miterlimit:4;stroke-dasharray:none;stroke-opacity:1"
       d="m 84.599105,2.244392 c 0,0 -4.08973,5.020155 -3.63532,11.86584"
       id="path4189" />
    <path
       inkscape:connector-curvature="0"
       id="path4191"
       d="m 12.116582,273.33332 c 0,0 -3.1809113,17.3424 2.726487,29.66461 l 20.490834,0"
       style="fill:none;fill-opacity:1;fill-rule:evenodd;stroke:#000000;stroke-width:3.56443357;stroke-linecap:butt;stroke-linejoin:miter;stroke-miterlimit:4;stroke-dasharray:none;stroke-opacity:1" />
    <path
       inkscape:connector-curvature="0"
       style="fill:none;fill-opacity:1;fill-rule:evenodd;stroke:#000000;stroke-width:3.56443357;stroke-linecap:butt;stroke-linejoin:miter;stroke-miterlimit:4;stroke-dasharray:none;stroke-opacity:1"
       d="m 237.55415,272.42056 c 0,0 3.18091,17.3424 -2.72651,29.66461 l -23.5279,0"
       id="path4193" />
    <path
       inkscape:connector-curvature="0"
       id="path4172"
       d="m 53.119133,296.48009 c -7.030358,-0.36219 -14.009497,-0.78012 -20.926435,-1.25262 0,0 -9.543176,-0.91276 -19.995226,-21.44978 C 1.7454217,253.24066 2.7424315,151.05816 3.1087368,96.246448 3.5631787,28.24608 29.693293,12.044645 29.693293,12.044645 c 0,0 106.565467,5.248352 190.181867,0.456379 0,0 26.8118,16.201435 26.81178,87.396484 0,71.195032 5.90769,177.987592 -27.2662,194.417202 0,0 -5.14083,0.51342 -14.4923,1.16948 -3.07009,0.20241 -6.14486,0.39326 -9.22351,0.57269"
       style="fill:none;fill-opacity:1;fill-rule:evenodd;stroke:#000000;stroke-width:5.80507374;stroke-linecap:butt;stroke-linejoin:miter;stroke-miterlimit:4;stroke-dasharray:none;stroke-opacity:1" />
    <path
       inkscape:connector-curvature="0"
       id="path4197"
       d="m 39.154266,295.92406 c 0,0 -11.587578,16.20145 -2.953692,26.24178 8.633884,10.04031 12.238526,7.35404 12.238526,7.35404"
       style="fill:none;fill-opacity:1;fill-rule:evenodd;stroke:#000000;stroke-width:2.64786506;stroke-linecap:butt;stroke-linejoin:miter;stroke-miterlimit:4;stroke-dasharray:none;stroke-opacity:1" />
    <path
       inkscape:connector-curvature="0"
       id="path4199"
       d="m 199.78999,329.4679 c 0,0 9.08829,-0.91276 11.81479,3.19466 2.72648,4.1074 13.17804,14.6041 21.81192,15.97323 0,0 8.28821,-3.26889 8.63387,-15.06048 0.34566,-11.79163 -4.08972,-13.23499 -4.08972,-13.23499 -4.99856,-2.2819 -9.54273,-2.73827 -14.99569,-8.67119 -5.45299,-5.93293 -11.46391,-11.94865 -25.55079,-12.86141"
       style="fill:none;fill-opacity:1;fill-rule:evenodd;stroke:#000000;stroke-width:2.64786506;stroke-linecap:butt;stroke-linejoin:miter;stroke-miterlimit:4;stroke-dasharray:none;stroke-opacity:1" />
    <path
       inkscape:connector-curvature="0"
       id="path4195"
       d="m 56.192821,289.21389 137.203619,0.32269 c 0,0 6.4264,15.81272 6.4264,32.59357 0,16.78084 -2.24924,19.36252 -2.24924,19.36252 l -145.23662,0.32269 c 0,0 -3.213193,0.32272 -2.891875,-17.10355 0.321316,-17.42624 2.891875,-30.3346 6.747716,-35.49792 z"
       style="fill:none;fill-opacity:1;fill-rule:evenodd;stroke:#000000;stroke-width:4.48100281;stroke-linecap:butt;stroke-linejoin:miter;stroke-miterlimit:4;stroke-dasharray:none;stroke-opacity:1" />
    <path
       inkscape:connector-curvature="0"
       id="path4201"
       d="m 238.30166,321.13899 c 0,0 -8.01777,-2.47 -10.22434,12.55041 -1.97839,13.46717 4.88497,14.03364 4.88497,14.03364"
       style="fill:none;fill-rule:evenodd;stroke:#000000;stroke-width:1.01840961px;stroke-linecap:butt;stroke-linejoin:miter;stroke-opacity:1" />
  </g>
  <g
     id="tank-turret">
    <path
       inkscape:connector-curvature="0"
       id="path4521"
       d="m 35.514118,67.494442 1.09161,13.34563 -21.46829,1.48285 -8.7328698,12.97491 c 0,0 -4.36643,37.071208 -4.36643,65.245338 0,28.17413 2.18323,83.03951 2.18323,83.03951 0,0 33.8398298,33.36409 93.5143998,33.73481 59.674562,0.37071 94.242142,-28.91555 94.242142,-28.91555 l 3.27483,-4.81926 3.27483,-67.0989 -2.91096,-78.961668 -1.45547,-2.96569 -7.64127,-12.60421 -21.1044,-1.48285 1.0916,-14.45777 -5.09417,-2.59499 -118.257522,0.37071 z"
       style="fill:#008e2f;fill-opacity:1;stroke:none;stroke-width:1.80599999;stroke-miterlimit:4;stroke-dasharray:none;stroke-opacity:1" />
    <path
       inkscape:connector-curvature="0"
       id="path4523"
       d="m 130.12014,63.787312 0.36387,-24.83771 -6.18579,-0.37071 0.18195,-13.90171 3.63868,-1.11213 1.63741,-3.52176 -0.36386,-13.16029 c 0,0 -10.0064,-5.18996 -27.65407,-5.0046 -17.647662,0.18535 -30.201162,5.93139 -30.201162,5.93139 l 0.54581,15.19919 3.27482,2.9657 1.27354,0.55606 0.72775,12.97493 -6.73158,0.74142 0.90966,22.98416 z"
       style="fill:#9e9e9e;fill-opacity:1;stroke:none;stroke-width:1.80599999;stroke-miterlimit:4;stroke-dasharray:none;stroke-opacity:1" />
    <path
       inkscape:connector-curvature="0"
       id="path4556"
       d="m 91.063808,62.594792 -0.1915,-23.78399 6.51065,-0.19656 -0.95745,24.96335 z"
       style="display:inline;fill:#ffffff;fill-opacity:0.77707005;stroke:none;stroke-width:1.80599999;stroke-miterlimit:4;stroke-dasharray:none;stroke-opacity:1" />
    <path
       inkscape:connector-curvature="0"
       id="path4558"
       d="m 89.531878,63.184482 -0.38297,-23.98055 -7.65958,0.58968 1.34042,23.98054 z"
       style="display:inline;fill:#ffffff;fill-opacity:0.77707005;stroke:none;stroke-width:1.80599999;stroke-miterlimit:4;stroke-dasharray:none;stroke-opacity:1" />
    <path
       inkscape:connector-curvature="0"
       id="path4560"
       d="m 80.384718,39.186792 -0.16678,-15.80888 4.18206,-0.55028 0.4103,16.52699 z"
       style="display:inline;fill:#ffffff;fill-opacity:0.77707005;stroke:none;stroke-width:1.80599999;stroke-miterlimit:4;stroke-dasharray:none;stroke-opacity:1" />
    <path
       inkscape:connector-curvature="0"
       id="path4562"
       d="m 86.937898,38.760162 0.23972,-15.50802 2.51699,-0.12211 0.23972,16.24069 z"
       style="display:inline;fill:#ffffff;fill-opacity:0.77707005;stroke:none;stroke-width:1.80599999;stroke-miterlimit:4;stroke-dasharray:none;stroke-opacity:1" />
    <path
       inkscape:connector-curvature="0"
       id="path4564"
       d="m 77.349388,20.565712 -0.59928,-15.87437 3.11627,-0.97688 0.35956,16.72914 z"
       style="display:inline;fill:#ffffff;fill-opacity:0.77707005;stroke:none;stroke-width:1.80599999;stroke-miterlimit:4;stroke-dasharray:none;stroke-opacity:1" />
    <path
       inkscape:connector-curvature="0"
       id="path4566"
       d="m 82.023788,19.710942 -0.35957,-16.2407 12.46509,-1.46532 0.11985,16.97335 z"
       style="display:inline;fill:#ffffff;fill-opacity:0.77707005;stroke:none;stroke-width:1.80599999;stroke-miterlimit:4;stroke-dasharray:none;stroke-opacity:1" />
    <path
       inkscape:connector-curvature="0"
       id="path4530"
       d="m 38.469388,79.144402 4.93595,-3.83144 11.75225,0.23947 105.535252,0 5.40604,3.11304 -1.64533,2.39465 -22.09423,-1.91572 -23.73956,-2.1552 -57.350992,0.95788 z"
       style="fill:#000000;fill-opacity:0.49019608;stroke:none;stroke-width:1.80599999;stroke-miterlimit:4;stroke-dasharray:none;stroke-opacity:1" />
    <path
       inkscape:connector-curvature="0"
       id="path4532"
       d="m 177.04147,155.75495 c 0,0 9.11678,57.3548 -43.76055,56.42597 -52.877322,-0.92881 -51.965642,-45.51231 -51.965642,-45.51231 0,0 8.43302,40.86821 48.091022,40.86821 39.65799,0 48.31893,-39.24277 47.63517,-51.78187 z"
       style="fill:#000000;fill-opacity:0.49019608;stroke:none;stroke-width:1.80599999;stroke-miterlimit:4;stroke-dasharray:none;stroke-opacity:1" />
    <path
       inkscape:connector-curvature="0"
       id="path4534"
       d="m 112.99609,188.49595 -13.675172,8.82382 c 0,0 7.977182,10.91366 29.401622,10.21705 21.42443,-0.69662 31.22496,-11.14588 31.22496,-11.14588 l -11.8518,-10.91366 c 0,0 -3.4188,7.19836 -17.77772,7.43057 -14.35894,0.23221 -17.32189,-4.4119 -17.32189,-4.4119 z"
       style="fill:#000000;fill-opacity:0.49019608;stroke:none;stroke-width:1.80599999;stroke-miterlimit:4;stroke-dasharray:none;stroke-opacity:1" />
    <path
       inkscape:connector-curvature="0"
       id="path4536"
       d="m 193.9075,245.85074 c 0,0 -34.18792,32.04439 -89.34443,32.2766 -55.156522,0.23221 -99.3729118,-33.20541 -99.3729118,-33.20541 0,0 61.7661898,27.86467 96.4099618,26.23924 34.64377,-1.62544 74.30175,-17.64763 92.30738,-25.31043 z"
       style="fill:#000000;fill-opacity:0.49019608;stroke:none;stroke-width:1.80599999;stroke-miterlimit:4;stroke-dasharray:none;stroke-opacity:1" />
    <path
       inkscape:connector-curvature="0"
       id="path4538"
       d="m 130.23959,58.088542 c 0,0 -12.0267,3.56728 -27.85932,3.56728 -15.832612,0 -30.904032,-1.39589 -30.904032,-1.39589 l 0,3.56729 40.647192,0.4653 17.81169,0.1551 z"
       style="fill:#000000;fill-opacity:0.49019608;stroke:none;stroke-width:1.80599999;stroke-miterlimit:4;stroke-dasharray:none;stroke-opacity:1" />
    <path
       inkscape:connector-curvature="0"
       id="path4540"
       d="m 123.99789,35.754192 c 0,0 -6.54618,0.6204 -22.8355,0.6204 -16.289332,0 -24.662342,-0.6204 -24.662342,-0.6204 l 0.15223,3.56729 24.357872,-1.0857 22.8355,0.93061 z"
       style="fill:#000000;fill-opacity:0.49019608;stroke:none;stroke-width:1.80599999;stroke-miterlimit:4;stroke-dasharray:none;stroke-opacity:1" />
    <path
       inkscape:connector-curvature="0"
       id="path4542"
       d="m 129.0217,22.415622 c 0,0 -4.11039,-3.87749 -28.62051,-3.56729 -24.510102,0.3102 -28.468242,3.102 -28.468242,3.102 l 3.80591,4.03259 2.74026,-1.8612 21.00866,-1.2408 14.614722,0 9.43869,0.93061 2.43577,1.70609 z"
       style="fill:#000000;fill-opacity:0.49019608;stroke:none;stroke-width:1.80599999;stroke-miterlimit:4;stroke-dasharray:none;stroke-opacity:1" />
    <path
       inkscape:connector-curvature="0"
       id="path4544"
       d="m 124.30236,27.223712 c 0,0 -8.82973,-2.94689 -24.357872,-2.63669 -15.52814,0.3102 -23.13998,2.4816 -23.13998,2.4816 l -0.60894,-2.6367 20.39972,-2.0163 10.808802,0.7755 9.89538,0.4653 7.4596,0.4653 z"
       style="fill:#000000;fill-opacity:0.49019608;stroke:none;stroke-width:1.80599999;stroke-miterlimit:4;stroke-dasharray:none;stroke-opacity:1" />
    <ellipse
       style="fill:none;fill-opacity:1;stroke:#000000;stroke-width:2.62424302;stroke-miterlimit:4;stroke-dasharray:none;stroke-opacity:1"
       id="path4401"
       cx="128.72496"
       cy="158.94125"
       rx="47.917576"
       ry="48.569988" />
    <ellipse
       ry="33.91264"
       rx="33.01688"
       cy="158.94125"
       cx="128.72496"
       id="ellipse4423"
       style="fill:none;fill-opacity:1;stroke:#000000;stroke-width:1.7803843;stroke-miterlimit:4;stroke-dasharray:none;stroke-opacity:1" />
    <path
       inkscape:connector-curvature="0"
       style="fill:none;fill-rule:evenodd;stroke:#000000;stroke-width:3.8614428;stroke-linecap:butt;stroke-linejoin:miter;stroke-miterlimit:4;stroke-dasharray:none;stroke-opacity:1"
       d="m 14.623778,82.785032 -9.2493698,12.27248 c 0,0 -7.26803,71.172718 -0.68514,149.796788 0,0 34.6612398,32.63796 96.2620418,33.20796 61.6008,0.57001 94.54918,-33.56892 94.54918,-33.56892 0,0 6.16627,-102.87248 -0.68514,-150.157708 l -8.22166,-12.27251 c 0,0 -40.76577,-3.60956 -86.32753,-4.33148 -45.561742,-0.72191 -85.642382,5.05339 -85.642382,5.05339 z"
       id="path4425" />
    <path
       inkscape:connector-curvature="0"
       style="fill:none;fill-rule:evenodd;stroke:#000000;stroke-width:0.98581636px;stroke-linecap:butt;stroke-linejoin:miter;stroke-opacity:1"
       d="m 3.7141382,243.55504 c 0,0 56.8027098,27.55759 96.6032518,27.55759 39.80055,0 95.05761,-26.77023 95.05761,-26.77023"
       id="path4447" />
    <path
       inkscape:connector-curvature="0"
       style="fill:none;fill-rule:evenodd;stroke:#000000;stroke-width:3.57888246;stroke-linecap:butt;stroke-linejoin:miter;stroke-miterlimit:4;stroke-dasharray:none;stroke-opacity:1"
       d="m 166.22574,77.687682 0.38731,-11.57146 -5.80966,-2.04204 -118.129602,-0.34034 -6.19696,3.40338 0.38731,10.55046 6.58428,-2.7227 116.193042,0.34033 z"
       id="path4449" />
    <path
       inkscape:connector-curvature="0"
       style="fill:none;fill-rule:evenodd;stroke:#000000;stroke-width:1.67588794;stroke-linecap:butt;stroke-linejoin:miter;stroke-miterlimit:4;stroke-dasharray:none;stroke-opacity:1"
       d="m 160.66614,64.637472 -0.38641,12.59776"
       id="path4451" />
    <path
       inkscape:connector-curvature="0"
       style="fill:none;fill-rule:evenodd;stroke:#000000;stroke-width:1.67588794;stroke-linecap:butt;stroke-linejoin:miter;stroke-miterlimit:4;stroke-dasharray:none;stroke-opacity:1"
       d="m 43.196578,64.243802 0.77282,12.20408"
       id="path4453" />
    <path
       inkscape:connector-curvature="0"
       style="fill:none;fill-rule:evenodd;stroke:#000000;stroke-width:2.66170406;stroke-linecap:butt;stroke-linejoin:round;stroke-miterlimit:4;stroke-dasharray:none;stroke-opacity:1"
       d="m 130.19534,63.650312 0.38728,-24.06783 c 0,0 -11.23088,-0.98639 -29.43265,-0.98639 -18.201782,0 -30.788112,1.57822 -30.788112,1.57822 l 0.96818,23.27872"
       id="path4455" />
    <path
       inkscape:connector-curvature="0"
       style="fill:none;fill-rule:evenodd;stroke:#000000;stroke-width:3.84468389;stroke-linecap:butt;stroke-linejoin:round;stroke-miterlimit:4;stroke-dasharray:none;stroke-opacity:1"
       d="m 125.35445,24.983952 c 0,0 2.7109,0.19728 3.67908,-1.38093 l 0.38728,-16.76858 c 0,0 -5.42181,-4.9121 -29.432662,-4.9121 -24.01085,0 -28.46449,5.70121 -28.46449,5.70121 l 0.38728,16.17674 c 0,0 1.35545,1.57822 4.45362,1.7755"
       id="path4457" />
    <path
       inkscape:connector-curvature="0"
       style="fill:none;fill-rule:evenodd;stroke:#000000;stroke-width:1.1829797;stroke-linecap:butt;stroke-linejoin:round;stroke-miterlimit:4;stroke-dasharray:none;stroke-opacity:1"
       d="m 73.847298,21.415672 c 0,0 7.74942,-2.21602 27.883572,-2.5646 16.65478,-0.28835 25.17266,2.36732 25.17266,2.36732"
       id="path4459" />
    <path
       inkscape:connector-curvature="0"
       style="fill:none;fill-rule:evenodd;stroke:#000000;stroke-width:2.16879606;stroke-linecap:butt;stroke-linejoin:round;stroke-miterlimit:4;stroke-dasharray:none;stroke-opacity:1"
       d="m 124.19263,39.582482 0.38728,-15.58491 c 0,0 -2.90455,-1.18366 -23.42994,-1.18366 -20.525422,0 -24.785412,1.77549 -24.785412,1.77549 l 0.58091,14.40124"
       id="path4461" />
  </g>
</svg>
