<?xml version="1.0" encoding="UTF-8" standalone="no"?>
<svg
   xmlns:dc="http://purl.org/dc/elements/1.1/"
   xmlns:cc="http://creativecommons.org/ns#"
   xmlns:rdf="http://www.w3.org/1999/02/22-rdf-syntax-ns#"
   xmlns:svg="http://www.w3.org/2000/svg"
   xmlns="http://www.w3.org/2000/svg"
   height="349.99997"
   version="1.1"
   width="249.99962"
   id="svg3495">
  <metadata
     id="metadata67">
    <rdf:RDF>
      <cc:Work
         rdf:about="">
        <dc:format>image/svg+xml</dc:format>
        <dc:type
           rdf:resource="http://purl.org/dc/dcmitype/StillImage" />
        <dc:title></dc:title>
      </cc:Work>
    </rdf:RDF>
  </metadata>
  <defs
     id="defs4" />
  <g
     id="tank-body">
    <path
       id="path4470"
       d="m 237.45814,39.555743 0.84241,-19.741 -3.36962,-15.22877 -1.6848,-2.53813 -69.63862,-0.28201 -3.08881,5.35827 0,5.35827 54.19457,-0.84605 3.36963,0.84605 11.79362,13.81869 z"
       style="fill:#b9b9b9;fill-opacity:1;fill-rule:evenodd;stroke:none;stroke-width:1px;stroke-linecap:butt;stroke-linejoin:miter;stroke-opacity:1" />
    <path
       id="path4174"
       d="m 162.09375,0 -0.53906,0.72070312 c 0,0 -0.86301,1.18907238 -1.61133,3.25585938 -0.74833,2.066787 -1.46875,5.132718 -1.46875,9.2207035 l 3.56445,0 c 0,-3.6704442 0.64094,-6.3094766 1.25586,-8.0078129 0.4242,-1.17158 0.58096,-1.310479 0.76953,-1.6113281 l 68.34375,0.4433594 c 0.99764,1.3811018 2.08081,4.1887445 2.79492,7.8691406 0.78476,4.044432 1.26569,8.904723 1.54688,13.564453 0.56239,9.319461 0.33789,17.816406 0.33789,17.816406 l 3.5625,0.09375 c 0,0 0.23186,-8.618839 -0.3418,-18.125 -0.28682,-4.75308 -0.77137,-9.730554 -1.60547,-14.029296 C 237.86903,6.9121949 236.83167,3.3006761 234.72266,1.03125 L 234.19727,0.46679688 162.09375,0 Z"
       style="color:#000000;font-style:normal;font-variant:normal;font-weight:normal;font-stretch:normal;font-size:medium;line-height:normal;font-family:sans-serif;text-indent:0;text-align:start;text-decoration:none;text-decoration-line:none;text-decoration-style:solid;text-decoration-color:#000000;letter-spacing:normal;word-spacing:normal;text-transform:none;direction:ltr;block-progression:tb;writing-mode:lr-tb;baseline-shift:baseline;text-anchor:start;white-space:normal;clip-rule:nonzero;display:inline;overflow:visible;visibility:visible;opacity:1;isolation:auto;mix-blend-mode:normal;color-interpolation:sRGB;color-interpolation-filters:linearRGB;solid-color:#000000;solid-opacity:1;fill:#000000;fill-opacity:1;fill-rule:evenodd;stroke:none;stroke-width:3.56443357;stroke-linecap:butt;stroke-linejoin:miter;stroke-miterlimit:4;stroke-dasharray:none;stroke-dashoffset:0;stroke-opacity:1;color-rendering:auto;image-rendering:auto;shape-rendering:auto;text-rendering:auto;enable-background:accumulate" />
    <path
       style="fill:#00ae3a;fill-opacity:1;fill-rule:evenodd;stroke:none;stroke-width:1px;stroke-linecap:butt;stroke-linejoin:miter;stroke-opacity:1"
       d="m 29.719665,13.302418 c 0,0 -23.1495733,18.302887 -24.6272027,56.88735 C 3.6148227,108.77421 3.6148227,203.25665 3.6148227,203.25665 c 0,0 -0.4925397,49.46725 6.8956193,64.80209 7.388167,15.33486 12.806145,22.75495 19.701761,25.72299 6.895618,2.96803 21.179402,3.95736 21.179402,3.95736 l 4.925437,-8.90409 136.434708,0 3.94034,8.40943 22.65705,-2.96803 c 0,0 19.2092,-3.95738 27.58245,-68.26481 l -1.47762,-157.305841 -8.86581,-29.185686 -7.8807,-17.313536 -6.89562,-10.38813 -32.01536,2.473372 -61.568,0.989338 -76.344335,-2.473358 z"
       id="path4466" />
    <path
       style="fill:#b9b9b9;fill-opacity:1;fill-rule:evenodd;stroke:none;stroke-width:1px;stroke-linecap:butt;stroke-linejoin:miter;stroke-opacity:1"
       d="M 10.854217,40.119773 10.011814,20.378782 13.381427,5.15 15.066231,2.611867 84.704853,2.32986 l 3.088812,5.358272 0,5.358273 -54.194574,-0.84605 -3.369611,0.84605 -11.793638,13.818691 z"
       id="path4468" />
    <path
       style="fill:#b9b9b9;fill-opacity:1;fill-rule:evenodd;stroke:none;stroke-width:1px;stroke-linecap:butt;stroke-linejoin:miter;stroke-opacity:1"
       d="m 13.100625,275.88375 -1.684805,10.99856 1.684805,11.56257 1.684805,4.23024 14.601646,0 5.896819,0.56401 2.80801,-6.48633 -4.212014,-1.97409 -7.020023,-1.69208 -5.616016,-5.07627 -4.492815,-7.8964 z"
       id="path4472" />
    <path
       id="path4474"
       d="m 236.55178,274.28843 1.68479,10.99856 -1.68479,11.56259 -1.68481,4.2302 -14.60164,0 -10.10885,0.28204 -10.67042,-4.23023 16.28645,-3.9482 7.02,-1.69208 5.61603,-5.07626 4.49282,-7.89641 z"
       style="fill:#b9b9b9;fill-opacity:1;fill-rule:evenodd;stroke:none;stroke-width:1px;stroke-linecap:butt;stroke-linejoin:miter;stroke-opacity:1" />
    <path
       style="fill:none;fill-rule:evenodd;stroke:#000000;stroke-width:1.01840961px;stroke-linecap:butt;stroke-linejoin:miter;stroke-opacity:1"
       d="m 38.492252,296.40658 -3.970132,6.83534 -1.701492,10.25304"
       id="path4476" />
    <path
       style="fill:#979797;fill-opacity:1;fill-rule:evenodd;stroke:none;stroke-width:1px;stroke-linecap:butt;stroke-linejoin:miter;stroke-opacity:1"
       d="m 39.36248,296.21196 -5.013045,9.46528 -1.8047,7.65274 3.208347,8.25695 1.00261,3.02082 5.013056,2.81944 8.020884,3.4236 1.002609,9.26388 5.213578,0.80556 137.357661,1.20833 3.20835,-0.60416 3.00783,-7.45137 0.8021,-4.63195 7.01827,0.60416 3.60938,1.6111 4.612,5.84028 3.20837,3.22222 5.21357,3.42361 3.60941,2.41666 4.81253,1.8125 4.612,-1.61112 2.80732,-4.63193 2.20574,-5.03472 -0.20051,-5.63886 -1.00262,-7.04862 -1.40365,-3.02083 -1.20315,-1.20834 -7.82036,-3.22222 -9.42452,-7.65275 -5.81514,-5.43749 -5.61464,-2.61806 -6.81775,-2.41666 -6.41671,-1.00695 -3.00782,-8.05553 -135.552964,-1.00695 -3.208348,4.43054 -2.406268,4.22915 z"
       id="path4478" />
    <path
       style="display:inline;fill:#000000;fill-opacity:0.49044584;stroke:none;stroke-width:1.80599999;stroke-miterlimit:4;stroke-dasharray:none;stroke-opacity:1"
       d="m 237.76148,320.67443 c 0,0 -8.25411,0.45219 -9.15456,12.2086 -0.90045,11.7564 -0.90045,9.94772 2.85144,15.07232 3.75185,5.12457 10.95542,-9.34485 10.95542,-12.81147 0,-3.46664 1.35069,-11.90713 -4.6523,-14.46945 z"
       id="path4481" />
    <path
       style="display:inline;fill:#000000;fill-opacity:0.49044584;stroke:none;stroke-width:1.80599999;stroke-miterlimit:4;stroke-dasharray:none;stroke-opacity:1"
       d="m 199.59464,312.27264 c 0,0 10.71737,3.52814 10.09339,10.09196 -0.71365,7.50701 3.0909,9.7905 3.0909,9.7905 l -12.98634,-2.88943 0.59713,-10.19445 z"
       id="path4483" />
    <path
       style="display:inline;fill:#000000;fill-opacity:0.49044584;stroke:none;stroke-width:1.80599999;stroke-miterlimit:4;stroke-dasharray:none;stroke-opacity:1"
       d="m 197.84161,332.12939 -147.373359,0 1.500748,9.45919 25.21255,0.33783 119.759611,-0.67565 z"
       id="path4485" />
    <path
       style="display:inline;fill:#000000;fill-opacity:0.49044584;stroke:none;stroke-width:1.80599999;stroke-miterlimit:4;stroke-dasharray:none;stroke-opacity:1"
       d="m 38.9125,296.70947 -1.650823,4.52168 c 0,0 3.001495,-3.01446 6.453217,-0.15074 3.45171,2.86375 4.35216,17.63463 4.35216,17.63463 l 4.202096,-20.95052 -1.350675,-1.05505 -11.855901,0.45215 z"
       id="path4487" />
    <path
       style="display:inline;fill:#000000;fill-opacity:0.49044584;stroke:none;stroke-width:1.80599999;stroke-miterlimit:4;stroke-dasharray:none;stroke-opacity:1"
       d="m 48.367203,324.74397 c 0,0 -4.202086,4.22025 -8.554256,1.05505 l 5.85292,4.37098 3.001487,0 0.150074,-5.27533 z"
       id="path4489" />
    <path
       style="display:inline;fill:#000000;fill-opacity:0.49044584;stroke:none;stroke-width:1.80599999;stroke-miterlimit:4;stroke-dasharray:none;stroke-opacity:1"
       d="m 237.61139,271.99086 0.30015,9.19409 c 0,0 -15.60775,17.78534 -15.75784,19.89546 -0.15006,2.11013 -5.55276,0.45218 -5.55276,0.45218 l -6.60328,0 -9.45471,-3.46663 4.65231,-2.11011 14.85741,-1.05507 5.2526,-5.27532 5.55279,-8.89267 z"
       id="path4491" />
    <path
       style="display:inline;fill:#000000;fill-opacity:0.49044584;stroke:none;stroke-width:1.80599999;stroke-miterlimit:4;stroke-dasharray:none;stroke-opacity:1"
       d="m 12.349274,276.66324 c 0,0 1.350675,18.23754 11.405679,22.15634 10.055013,3.9188 10.205086,4.22025 10.205086,4.22025 l 3.901936,-4.37097 0.600301,-2.5623 -9.154555,-2.71303 -6.753367,-6.93326 -7.353659,-6.93326 z"
       id="path4493" />
    <path
       style="display:inline;fill:#000000;fill-opacity:0.49044584;stroke:none;stroke-width:1.80599999;stroke-miterlimit:4;stroke-dasharray:none;stroke-opacity:1"
       d="m 231.00812,347.80461 c -2.10104,-1.80868 -3.45173,-9.19411 -3.45173,-9.19411 -5.10254,0 -15.30762,-5.87819 -15.30762,-5.87819 -1.95096,-3.61738 5.10254,10.39989 18.90943,15.52448"
       id="path4495" />
    <path
       style="display:inline;fill:#000000;fill-opacity:0.49044584;stroke:none;stroke-width:1.80599999;stroke-miterlimit:4;stroke-dasharray:none;stroke-opacity:1"
       d="m 237.46133,320.22227 c 0,0 1.65082,27.1302 -4.80238,27.2809 -6.45322,0.15074 -4.35217,-14.46942 -4.35217,-14.46942 0,0 0.75037,-10.70135 9.15455,-12.81148 z"
       id="path4497" />
    <path
       style="display:inline;fill:#000000;fill-opacity:0.49044584;stroke:none;stroke-width:1.80599999;stroke-miterlimit:4;stroke-dasharray:none;stroke-opacity:1"
       d="m 7.6969638,255.71272 2.7013382,15.37379 10.505238,15.97666 9.604779,6.93326 18.309109,3.61735 4.202094,-1.50722 3.601797,-7.23472 135.667521,0.60288 2.10106,5.72749 9.00447,0.90435 12.90642,-1.80867 8.40417,-3.01449 6.6033,-8.4405 3.60181,-7.2347 5.10253,-14.46943 -0.30014,-8.13905 c 0,0 -12.00599,30.74753 -47.42362,30.14464 -35.41762,-0.6029 -136.567969,-1.50722 -136.567969,-1.50722 0,0 -34.817331,1.80867 -48.0239072,-25.92442 z"
       id="path4499" />
    <path
       style="display:inline;fill:#000000;fill-opacity:0.49044584;stroke:none;stroke-width:1.80599999;stroke-miterlimit:4;stroke-dasharray:none;stroke-opacity:1"
       d="m 9.4295121,28.02516 c 0,0 4.9218509,-19.772495 18.5516089,-20.152729 13.629748,-0.380248 52.625992,4.182645 52.625992,4.182645 l 1.893019,-3.802411 1.135815,-4.943113 3.028831,0 1.893029,11.407205 -34.831598,-1.901199 -23.094856,-1.520964 -9.08651,8.365289 -8.329295,16.730568 -3.4074344,5.323374 z"
       id="path4503" />
    <path
       style="display:inline;fill:#000000;fill-opacity:0.49044584;stroke:none;stroke-width:1.80599999;stroke-miterlimit:4;stroke-dasharray:none;stroke-opacity:1"
       d="m 160.11402,14.336509 1.89302,-11.407206 0.37861,-0.380234 c 0,0 5.30044,1.901199 6.05767,12.547922 0,0 46.94691,-9.886241 56.03343,-6.464079 9.08649,3.422164 12.87253,26.616822 12.87253,26.616822 l -13.25114,-20.152743 -6.05767,-3.041915 -37.86042,3.802396 -14.38697,0.380249 z"
       id="path4505" />
    <path
       style="fill:#ffffff;fill-opacity:0.77707005;stroke:none;stroke-width:1.80599999;stroke-miterlimit:4;stroke-dasharray:none;stroke-opacity:1"
       d="m 52.641288,297.25308 143.652622,-3.2314 4.25849,18.17673 -151.033996,1.21179 z"
       id="path4547" />
    <path
       style="fill:#ffffff;fill-opacity:0.77707005;stroke:none;stroke-width:1.80599999;stroke-miterlimit:4;stroke-dasharray:none;stroke-opacity:1"
       d="m 37.026879,306.85232 c 0,0 -3.122884,9.12399 1.419492,11.11987 4.542375,1.99588 8.23305,-0.28514 9.936441,2.28099 1.703393,2.56614 1.419492,-3.42148 1.419492,-3.42148 l -7.949161,0 c 0,0 3.406785,-13.68603 -4.826264,-9.97938 z"
       id="path4549" />
    <path
       style="fill:#ffffff;fill-opacity:0.77707005;stroke:none;stroke-width:1.80599999;stroke-miterlimit:4;stroke-dasharray:none;stroke-opacity:1"
       d="m 197.42951,300.86467 c 0,0 7.38136,-0.57025 12.77543,5.41739 5.39407,5.98763 11.92371,11.40499 21.57628,16.25214 l -1.9873,4.562 c 0,0 -13.34322,-4.56199 -17.6017,-9.97937 -3.77707,-4.80499 -6.81356,-12.2604 -12.49153,-11.69017 -5.67797,0.57027 -2.27118,-4.56199 -2.27118,-4.56199 z"
       id="path4551" />
    <path
       id="path4185"
       d="m 86.210938,0.91210938 -72.103516,0.46875002 -0.525391,0.5625 c -2.109015,2.269426 -3.146369,5.8809436 -3.9804685,10.1796876 -0.8340996,4.298744 -1.318642,9.278168 -1.6054687,14.03125 -0.5736536,9.506164 -0.3417969,18.125 -0.3417969,18.125 l 3.5625001,-0.0957 c 0,0 -0.224497,-8.494989 0.337891,-17.814453 0.281193,-4.659733 0.76212,-9.521974 1.546874,-13.566407 0.714277,-3.6812058 1.797105,-6.488451 2.794922,-7.8691402 L 84.238281,4.4902344 c 0.188315,0.3002196 0.34667,0.4399926 0.771485,1.6132812 0.614919,1.6983364 1.255859,4.3354154 1.255859,8.0058594 l 3.564453,0 c 0,-4.087985 -0.720425,-7.1539162 -1.46875,-9.2207031 C 87.613003,2.821885 86.75,1.6347656 86.75,1.6347656 L 86.210938,0.91210938 Z"
       style="color:#000000;font-style:normal;font-variant:normal;font-weight:normal;font-stretch:normal;font-size:medium;line-height:normal;font-family:sans-serif;text-indent:0;text-align:start;text-decoration:none;text-decoration-line:none;text-decoration-style:solid;text-decoration-color:#000000;letter-spacing:normal;word-spacing:normal;text-transform:none;direction:ltr;block-progression:tb;writing-mode:lr-tb;baseline-shift:baseline;text-anchor:start;white-space:normal;clip-rule:nonzero;display:inline;overflow:visible;visibility:visible;opacity:1;isolation:auto;mix-blend-mode:normal;color-interpolation:sRGB;color-interpolation-filters:linearRGB;solid-color:#000000;solid-opacity:1;fill:#000000;fill-opacity:1;fill-rule:evenodd;stroke:none;stroke-width:3.56443357;stroke-linecap:butt;stroke-linejoin:miter;stroke-miterlimit:4;stroke-dasharray:none;stroke-dashoffset:0;stroke-opacity:1;color-rendering:auto;image-rendering:auto;shape-rendering:auto;text-rendering:auto;enable-background:accumulate" />
    <path
       style="fill:none;fill-rule:evenodd;stroke:#000000;stroke-width:1.73129666;stroke-linecap:butt;stroke-linejoin:miter;stroke-miterlimit:4;stroke-dasharray:none;stroke-opacity:1"
       d="m 163.89119,2.244392 c 0,0 4.08974,5.020155 3.63534,11.86584"
       id="path4187" />
    <path
       id="path4189"
       d="m 84.599105,2.244392 c 0,0 -4.08973,5.020155 -3.63532,11.86584"
       style="fill:none;fill-rule:evenodd;stroke:#000000;stroke-width:1.73129666;stroke-linecap:butt;stroke-linejoin:miter;stroke-miterlimit:4;stroke-dasharray:none;stroke-opacity:1" />
    <path
       id="path4191"
       d="m 10.363281,273.01172 c 0,0 -3.4239601,17.62097 2.873047,30.75586 l 0.484375,1.01172 21.613281,0 0,-3.56446 -19.263672,0 C 11.156827,289.74234 13.869141,273.6543 13.869141,273.6543 l -3.50586,-0.64258 z"
       style="color:#000000;font-style:normal;font-variant:normal;font-weight:normal;font-stretch:normal;font-size:medium;line-height:normal;font-family:sans-serif;text-indent:0;text-align:start;text-decoration:none;text-decoration-line:none;text-decoration-style:solid;text-decoration-color:#000000;letter-spacing:normal;word-spacing:normal;text-transform:none;direction:ltr;block-progression:tb;writing-mode:lr-tb;baseline-shift:baseline;text-anchor:start;white-space:normal;clip-rule:nonzero;display:inline;overflow:visible;visibility:visible;opacity:1;isolation:auto;mix-blend-mode:normal;color-interpolation:sRGB;color-interpolation-filters:linearRGB;solid-color:#000000;solid-opacity:1;fill:#000000;fill-opacity:1;fill-rule:evenodd;stroke:none;stroke-width:3.56443357;stroke-linecap:butt;stroke-linejoin:miter;stroke-miterlimit:4;stroke-dasharray:none;stroke-dashoffset:0;stroke-opacity:1;color-rendering:auto;image-rendering:auto;shape-rendering:auto;text-rendering:auto;enable-background:accumulate" />
    <path
       id="path4193"
       d="m 239.30664,272.09961 -3.50586,0.64258 c 0,0 2.71242,16.08803 -2.20117,27.56054 l -22.30078,0 0,3.56446 24.65039,0 0.48633,-1.01172 c 6.29703,-13.13489 2.87109,-30.75586 2.87109,-30.75586 z"
       style="color:#000000;font-style:normal;font-variant:normal;font-weight:normal;font-stretch:normal;font-size:medium;line-height:normal;font-family:sans-serif;text-indent:0;text-align:start;text-decoration:none;text-decoration-line:none;text-decoration-style:solid;text-decoration-color:#000000;letter-spacing:normal;word-spacing:normal;text-transform:none;direction:ltr;block-progression:tb;writing-mode:lr-tb;baseline-shift:baseline;text-anchor:start;white-space:normal;clip-rule:nonzero;display:inline;overflow:visible;visibility:visible;opacity:1;isolation:auto;mix-blend-mode:normal;color-interpolation:sRGB;color-interpolation-filters:linearRGB;solid-color:#000000;solid-opacity:1;fill:#000000;fill-opacity:1;fill-rule:evenodd;stroke:none;stroke-width:3.56443357;stroke-linecap:butt;stroke-linejoin:miter;stroke-miterlimit:4;stroke-dasharray:none;stroke-dashoffset:0;stroke-opacity:1;color-rendering:auto;image-rendering:auto;shape-rendering:auto;text-rendering:auto;enable-background:accumulate" />
    <path
       id="path4172"
       d="M 28.931641,9.1015625 28.164062,9.578125 c 0,0 -2.025741,1.286476 -4.664062,4.058594 -2.638321,2.772117 -6.079608,7.14921 -9.498047,13.660156 C 7.1650746,40.318767 0.43672632,61.856163 0.20703125,96.226562 0.02391565,123.62687 -0.31851366,162.9034 0.6953125,197.94922 c 0.5069131,17.52291 1.3513319,33.98492 2.734375,47.42969 1.3830431,13.44476 3.1188552,23.69683 6.1816406,29.71484 5.3801089,10.57127 10.6405259,16.3112 14.7519529,19.42383 2.055714,1.55631 3.820744,2.45025 5.134766,2.95508 1.314021,0.50482 2.417969,0.64453 2.417969,0.64453 l 0.03906,0.004 0.03906,0.002 c 6.933278,0.47361 13.9302,0.89284 20.976562,1.25586 l 0.296875,-5.79688 c -6.989428,-0.36008 -13.926216,-0.77677 -20.802734,-1.24609 -8.23e-4,2.2e-4 -0.08653,0.0254 -0.884766,-0.28125 -0.80195,-0.3081 -2.076304,-0.92506 -3.71289,-2.16407 -3.273174,-2.47801 -8.01009,-7.46393 -13.082032,-17.42968 -2.16324,-4.25051 -4.223821,-14.47243 -5.582031,-27.67578 C 7.8449154,231.5818 7.0025995,215.22256 6.4980469,197.78125 5.4889417,162.89863 5.828529,123.67703 6.0117188,96.265625 6.2364656,62.635656 12.798836,42.073058 19.140625,29.994141 c 3.170895,-6.039459 6.289176,-9.962853 8.564453,-12.353516 1.926911,-2.02463 2.660643,-2.44095 2.978516,-2.650391 3.261265,0.158789 105.835476,5.079909 188.214846,0.457032 0.31195,0.199812 1.08044,0.624162 3.0664,2.703125 2.32545,2.434335 5.51159,6.451734 8.73828,12.685547 6.4534,12.467624 13.08205,33.829337 13.08204,69.0625 0,35.721242 2.26428,78.873422 0.01,115.619142 -1.12726,18.37286 -3.39536,35.13767 -7.54101,48.44531 -4.06977,13.06404 -9.93686,22.57334 -17.89649,27.52539 -0.5157,0.0508 -4.81429,0.48094 -13.63281,1.09961 -3.05814,0.20159 -6.12263,0.39353 -9.18945,0.57227 l 0.33789,5.79492 c 3.08593,-0.17986 6.16857,-0.37132 9.24609,-0.57422 l 0.006,0 0.006,-0.002 c 9.38285,-0.65827 14.57812,-1.17579 14.57812,-1.17579 l 0.64063,-0.0645 0.55469,-0.32812 c 9.99653,-5.94345 16.51608,-17.07248 20.89258,-31.1211 4.37649,-14.04862 6.64999,-31.18736 7.79296,-49.8164 2.28596,-37.25809 0,-80.50082 0,-115.974612 1e-5,-35.961887 -6.77797,-58.300567 -13.73046,-71.732422 -3.47625,-6.715928 -6.99355,-11.197112 -9.69532,-14.025391 -2.70176,-2.828279 -4.78711,-4.123047 -4.78711,-4.123047 l -0.76953,-0.4648436 -0.89844,0.050781 C 136.35408,14.380503 29.835937,9.1464844 29.835938,9.1464844 l -0.904297,-0.044922 z"
       style="color:#000000;font-style:normal;font-variant:normal;font-weight:normal;font-stretch:normal;font-size:medium;line-height:normal;font-family:sans-serif;text-indent:0;text-align:start;text-decoration:none;text-decoration-line:none;text-decoration-style:solid;text-decoration-color:#000000;letter-spacing:normal;word-spacing:normal;text-transform:none;direction:ltr;block-progression:tb;writing-mode:lr-tb;baseline-shift:baseline;text-anchor:start;white-space:normal;clip-rule:nonzero;display:inline;overflow:visible;visibility:visible;opacity:1;isolation:auto;mix-blend-mode:normal;color-interpolation:sRGB;color-interpolation-filters:linearRGB;solid-color:#000000;solid-opacity:1;fill:#000000;fill-opacity:1;fill-rule:evenodd;stroke:none;stroke-width:5.80507374;stroke-linecap:butt;stroke-linejoin:miter;stroke-miterlimit:4;stroke-dasharray:none;stroke-dashoffset:0;stroke-opacity:1;color-rendering:auto;image-rendering:auto;shape-rendering:auto;text-rendering:auto;enable-background:accumulate" />
    <path
       id="path4197"
       d="m 38.078125,295.1543 c 0,0 -3.000138,4.17929 -4.890625,9.69726 -1.890487,5.51798 -2.727618,12.66864 2.009766,18.17774 4.414387,5.13347 7.63732,7.15753 9.986328,7.84961 1.174503,0.34603 2.129763,0.33946 2.818359,0.20117 0.688596,-0.13829 1.228516,-0.49805 1.228516,-0.49805 l -1.582031,-2.12305 c 0,0 0.08911,-0.0262 -0.167969,0.0254 -0.257083,0.0516 -0.742936,0.091 -1.548828,-0.14649 -1.611785,-0.47487 -4.507066,-2.12832 -8.726563,-7.03516 -3.896502,-4.53123 -3.258502,-10.50091 -1.513672,-15.59375 1.74483,-5.09283 4.539063,-9.01562 4.539063,-9.01562 l -2.152344,-1.53906 z"
       style="color:#000000;font-style:normal;font-variant:normal;font-weight:normal;font-stretch:normal;font-size:medium;line-height:normal;font-family:sans-serif;text-indent:0;text-align:start;text-decoration:none;text-decoration-line:none;text-decoration-style:solid;text-decoration-color:#000000;letter-spacing:normal;word-spacing:normal;text-transform:none;direction:ltr;block-progression:tb;writing-mode:lr-tb;baseline-shift:baseline;text-anchor:start;white-space:normal;clip-rule:nonzero;display:inline;overflow:visible;visibility:visible;opacity:1;isolation:auto;mix-blend-mode:normal;color-interpolation:sRGB;color-interpolation-filters:linearRGB;solid-color:#000000;solid-opacity:1;fill:#000000;fill-opacity:1;fill-rule:evenodd;stroke:none;stroke-width:2.64786506;stroke-linecap:butt;stroke-linejoin:miter;stroke-miterlimit:4;stroke-dasharray:none;stroke-dashoffset:0;stroke-opacity:1;color-rendering:auto;image-rendering:auto;shape-rendering:auto;text-rendering:auto;enable-background:accumulate" />
    <path
       id="path4199"
       d="m 197.5,297.48633 -0.17188,2.64258 c 13.73658,0.89006 19.23542,6.53122 24.66211,12.43554 5.67806,6.17783 10.63645,6.79676 15.41993,8.98047 l 0.0703,0.0312 0.0703,0.0234 c 0,0 0.007,-0.0209 0.28516,0.19531 0.27769,0.21622 0.70271,0.62872 1.15429,1.40625 0.90318,1.55508 1.90426,4.60749 1.73633,10.33594 -0.16385,5.58958 -2.16631,9.00196 -4.0957,11.0918 -1.64611,1.783 -2.95512,2.41279 -3.36914,2.59765 -3.80999,-0.72405 -8.30765,-3.44074 -12.12695,-6.57422 -3.93706,-3.23007 -7.2082,-6.88543 -8.42774,-8.72265 -1.7631,-2.65608 -5.11775,-3.41822 -7.88867,-3.72071 -2.77092,-0.30248 -5.16016,-0.0586 -5.16016,-0.0586 l 0.26368,2.63477 c 0,0 2.15452,-0.21135 4.60937,0.0566 2.45485,0.26798 5.0073,1.10138 5.9707,2.55273 1.50694,2.27018 4.82431,5.91728 8.95313,9.30469 4.12881,3.3874 9.00167,6.49055 13.7539,7.24414 l 0.35743,0.0566 0.33593,-0.13281 c 0,0 2.3727,-0.94891 4.67383,-3.44141 2.30114,-2.4925 4.61507,-6.61049 4.79688,-12.8125 0.17773,-6.06318 -0.86566,-9.62767 -2.09375,-11.74219 -0.61405,-1.05725 -1.27523,-1.74311 -1.81836,-2.16601 -0.54314,-0.4229 -1.08985,-0.62305 -1.08985,-0.62305 -5.14395,-2.31894 -9.2534,-2.67457 -14.43164,-8.30859 C 218.46017,304.8119 211.93719,298.42179 197.5,297.48633 Z"
       style="color:#000000;font-style:normal;font-variant:normal;font-weight:normal;font-stretch:normal;font-size:medium;line-height:normal;font-family:sans-serif;text-indent:0;text-align:start;text-decoration:none;text-decoration-line:none;text-decoration-style:solid;text-decoration-color:#000000;letter-spacing:normal;word-spacing:normal;text-transform:none;direction:ltr;block-progression:tb;writing-mode:lr-tb;baseline-shift:baseline;text-anchor:start;white-space:normal;clip-rule:nonzero;display:inline;overflow:visible;visibility:visible;opacity:1;isolation:auto;mix-blend-mode:normal;color-interpolation:sRGB;color-interpolation-filters:linearRGB;solid-color:#000000;solid-opacity:1;fill:#000000;fill-opacity:1;fill-rule:evenodd;stroke:none;stroke-width:2.64786506;stroke-linecap:butt;stroke-linejoin:miter;stroke-miterlimit:4;stroke-dasharray:none;stroke-dashoffset:0;stroke-opacity:1;color-rendering:auto;image-rendering:auto;shape-rendering:auto;text-rendering:auto;enable-background:accumulate" />
    <path
       id="path4195"
       d="m 55.072266,286.9707 -0.673828,0.90235 c -2.320687,3.10761 -3.907528,7.84533 -5.105469,14.06836 -1.197942,6.22303 -1.925391,13.91548 -2.087891,22.72851 -0.163192,8.85052 0.518787,13.30487 1.460938,15.89453 0.471075,1.29483 1.028192,2.16912 1.755859,2.76367 0.363833,0.29728 0.77218,0.50815 1.15625,0.61915 0.38407,0.111 0.982422,0.0976 0.982422,0.0976 l -0.21875,0.0117 146.253903,-0.32617 0.66797,-0.76563 c 0,0 0.20972,-0.26513 0.33203,-0.4707 0.12231,-0.20557 0.2555,-0.4656 0.39649,-0.80273 0.28197,-0.67428 0.59667,-1.65515 0.90039,-3.13672 0.60743,-2.96316 1.16992,-7.93331 1.16992,-16.42383 0,-17.35287 -6.58984,-33.4375 -6.58984,-33.4375 l -0.56641,-1.39453 -139.833984,-0.32813 z m 2.472656,4.48828 134.220698,0.31446 c 0.76807,1.9824 5.81641,15.30065 5.81641,30.35742 0,8.29032 -0.56094,13.00054 -1.07812,15.52344 -0.17942,0.87522 -0.31291,1.19779 -0.44922,1.60156 L 53.125,339.57227 c -0.05199,-0.0722 -0.05754,-0.0154 -0.248047,-0.53907 -0.584116,-1.60554 -1.349532,-5.70354 -1.191406,-14.27929 0.158816,-8.61321 0.876185,-16.08826 2.007812,-21.9668 1.022405,-5.31116 2.453409,-9.08517 3.851563,-11.32813 z"
       style="color:#000000;font-style:normal;font-variant:normal;font-weight:normal;font-stretch:normal;font-size:medium;line-height:normal;font-family:sans-serif;text-indent:0;text-align:start;text-decoration:none;text-decoration-line:none;text-decoration-style:solid;text-decoration-color:#000000;letter-spacing:normal;word-spacing:normal;text-transform:none;direction:ltr;block-progression:tb;writing-mode:lr-tb;baseline-shift:baseline;text-anchor:start;white-space:normal;clip-rule:nonzero;display:inline;overflow:visible;visibility:visible;opacity:1;isolation:auto;mix-blend-mode:normal;color-interpolation:sRGB;color-interpolation-filters:linearRGB;solid-color:#000000;solid-opacity:1;fill:#000000;fill-opacity:1;fill-rule:evenodd;stroke:none;stroke-width:4.48100281;stroke-linecap:butt;stroke-linejoin:miter;stroke-miterlimit:4;stroke-dasharray:none;stroke-dashoffset:0;stroke-opacity:1;color-rendering:auto;image-rendering:auto;shape-rendering:auto;text-rendering:auto;enable-background:accumulate" />
    <path
       style="fill:none;fill-rule:evenodd;stroke:#000000;stroke-width:1.01840961px;stroke-linecap:butt;stroke-linejoin:miter;stroke-opacity:1"
       d="m 238.30166,321.13899 c 0,0 -8.01777,-2.47 -10.22434,12.55041 -1.97839,13.46717 4.88497,14.03364 4.88497,14.03364"
       id="path4201" />
  </g>
  <g
     id="tank-turret">
    <path
       style="fill:#008e2f;fill-opacity:1;stroke:none;stroke-width:1.80599999;stroke-miterlimit:4;stroke-dasharray:none;stroke-opacity:1"
       d="m 35.514118,67.494442 1.09161,13.34563 -21.46829,1.48285 -8.7328698,12.97491 c 0,0 -4.36643,37.071208 -4.36643,65.245338 0,28.17413 2.18323,83.03951 2.18323,83.03951 0,0 33.8398298,33.36409 93.5143998,33.73481 59.674562,0.37071 94.242142,-28.91555 94.242142,-28.91555 l 3.27483,-4.81926 3.27483,-67.0989 -2.91096,-78.961668 -1.45547,-2.96569 -7.64127,-12.60421 -21.1044,-1.48285 1.0916,-14.45777 -5.09417,-2.59499 -118.257522,0.37071 z"
       id="path4521" />
    <path
       style="fill:#9e9e9e;fill-opacity:1;stroke:none;stroke-width:1.80599999;stroke-miterlimit:4;stroke-dasharray:none;stroke-opacity:1"
       d="m 130.12014,63.787312 0.36387,-24.83771 -6.18579,-0.37071 0.18195,-13.90171 3.63868,-1.11213 1.63741,-3.52176 -0.36386,-13.16029 c 0,0 -10.0064,-5.18996 -27.65407,-5.0046 -17.647662,0.18535 -30.201162,5.93139 -30.201162,5.93139 l 0.54581,15.19919 3.27482,2.9657 1.27354,0.55606 0.72775,12.97493 -6.73158,0.74142 0.90966,22.98416 z"
       id="path4523" />
    <path
       style="display:inline;fill:#ffffff;fill-opacity:0.77707005;stroke:none;stroke-width:1.80599999;stroke-miterlimit:4;stroke-dasharray:none;stroke-opacity:1"
       d="m 91.063808,62.594792 -0.1915,-23.78399 6.51065,-0.19656 -0.95745,24.96335 z"
       id="path4556" />
    <path
       style="display:inline;fill:#ffffff;fill-opacity:0.77707005;stroke:none;stroke-width:1.80599999;stroke-miterlimit:4;stroke-dasharray:none;stroke-opacity:1"
       d="m 89.531878,63.184482 -0.38297,-23.98055 -7.65958,0.58968 1.34042,23.98054 z"
       id="path4558" />
    <path
       style="display:inline;fill:#ffffff;fill-opacity:0.77707005;stroke:none;stroke-width:1.80599999;stroke-miterlimit:4;stroke-dasharray:none;stroke-opacity:1"
       d="m 80.384718,39.186792 -0.16678,-15.80888 4.18206,-0.55028 0.4103,16.52699 z"
       id="path4560" />
    <path
       style="display:inline;fill:#ffffff;fill-opacity:0.77707005;stroke:none;stroke-width:1.80599999;stroke-miterlimit:4;stroke-dasharray:none;stroke-opacity:1"
       d="m 86.937898,38.760162 0.23972,-15.50802 2.51699,-0.12211 0.23972,16.24069 z"
       id="path4562" />
    <path
       style="display:inline;fill:#ffffff;fill-opacity:0.77707005;stroke:none;stroke-width:1.80599999;stroke-miterlimit:4;stroke-dasharray:none;stroke-opacity:1"
       d="m 77.349388,20.565712 -0.59928,-15.87437 3.11627,-0.97688 0.35956,16.72914 z"
       id="path4564" />
    <path
       style="display:inline;fill:#ffffff;fill-opacity:0.77707005;stroke:none;stroke-width:1.80599999;stroke-miterlimit:4;stroke-dasharray:none;stroke-opacity:1"
       d="m 82.023788,19.710942 -0.35957,-16.2407 12.46509,-1.46532 0.11985,16.97335 z"
       id="path4566" />
    <path
       style="fill:#000000;fill-opacity:0.49019608;stroke:none;stroke-width:1.80599999;stroke-miterlimit:4;stroke-dasharray:none;stroke-opacity:1"
       d="m 38.469388,79.144402 4.93595,-3.83144 11.75225,0.23947 105.535252,0 5.40604,3.11304 -1.64533,2.39465 -22.09423,-1.91572 -23.73956,-2.1552 -57.350992,0.95788 z"
       id="path4530" />
    <path
       style="fill:#000000;fill-opacity:0.49019608;stroke:none;stroke-width:1.80599999;stroke-miterlimit:4;stroke-dasharray:none;stroke-opacity:1"
       d="m 177.04147,155.75495 c 0,0 9.11678,57.3548 -43.76055,56.42597 -52.877322,-0.92881 -51.965642,-45.51231 -51.965642,-45.51231 0,0 8.43302,40.86821 48.091022,40.86821 39.65799,0 48.31893,-39.24277 47.63517,-51.78187 z"
       id="path4532" />
    <path
       style="fill:#000000;fill-opacity:0.49019608;stroke:none;stroke-width:1.80599999;stroke-miterlimit:4;stroke-dasharray:none;stroke-opacity:1"
       d="m 112.99609,188.49595 -13.675172,8.82382 c 0,0 7.977182,10.91366 29.401622,10.21705 21.42443,-0.69662 31.22496,-11.14588 31.22496,-11.14588 l -11.8518,-10.91366 c 0,0 -3.4188,7.19836 -17.77772,7.43057 -14.35894,0.23221 -17.32189,-4.4119 -17.32189,-4.4119 z"
       id="path4534" />
    <path
       style="fill:#000000;fill-opacity:0.49019608;stroke:none;stroke-width:1.80599999;stroke-miterlimit:4;stroke-dasharray:none;stroke-opacity:1"
       d="m 193.9075,245.85074 c 0,0 -34.18792,32.04439 -89.34443,32.2766 -55.156522,0.23221 -99.3729118,-33.20541 -99.3729118,-33.20541 0,0 61.7661898,27.86467 96.4099618,26.23924 34.64377,-1.62544 74.30175,-17.64763 92.30738,-25.31043 z"
       id="path4536" />
    <path
       style="fill:#000000;fill-opacity:0.49019608;stroke:none;stroke-width:1.80599999;stroke-miterlimit:4;stroke-dasharray:none;stroke-opacity:1"
       d="m 130.23959,58.088542 c 0,0 -12.0267,3.56728 -27.85932,3.56728 -15.832612,0 -30.904032,-1.39589 -30.904032,-1.39589 l 0,3.56729 40.647192,0.4653 17.81169,0.1551 z"
       id="path4538" />
    <path
       style="fill:#000000;fill-opacity:0.49019608;stroke:none;stroke-width:1.80599999;stroke-miterlimit:4;stroke-dasharray:none;stroke-opacity:1"
       d="m 123.99789,35.754192 c 0,0 -6.54618,0.6204 -22.8355,0.6204 -16.289332,0 -24.662342,-0.6204 -24.662342,-0.6204 l 0.15223,3.56729 24.357872,-1.0857 22.8355,0.93061 z"
       id="path4540" />
    <path
       style="fill:#000000;fill-opacity:0.49019608;stroke:none;stroke-width:1.80599999;stroke-miterlimit:4;stroke-dasharray:none;stroke-opacity:1"
       d="m 129.0217,22.415622 c 0,0 -4.11039,-3.87749 -28.62051,-3.56729 -24.510102,0.3102 -28.468242,3.102 -28.468242,3.102 l 3.80591,4.03259 2.74026,-1.8612 21.00866,-1.2408 14.614722,0 9.43869,0.93061 2.43577,1.70609 z"
       id="path4542" />
    <path
       style="fill:#000000;fill-opacity:0.49019608;stroke:none;stroke-width:1.80599999;stroke-miterlimit:4;stroke-dasharray:none;stroke-opacity:1"
       d="m 124.30236,27.223712 c 0,0 -8.82973,-2.94689 -24.357872,-2.63669 -15.52814,0.3102 -23.13998,2.4816 -23.13998,2.4816 l -0.60894,-2.6367 20.39972,-2.0163 10.808802,0.7755 9.89538,0.4653 7.4596,0.4653 z"
       id="path4544" />
    <ellipse
       ry="48.569988"
       rx="47.917576"
       cy="158.94125"
       cx="128.72496"
       id="path4401"
       style="fill:none;fill-opacity:1;stroke:#000000;stroke-width:2.62424302;stroke-miterlimit:4;stroke-dasharray:none;stroke-opacity:1" />
    <ellipse
       style="fill:none;fill-opacity:1;stroke:#000000;stroke-width:1.7803843;stroke-miterlimit:4;stroke-dasharray:none;stroke-opacity:1"
       id="ellipse4423"
       cx="128.72496"
       cy="158.94125"
       rx="33.01688"
       ry="33.91264" />
    <path
       id="path4425"
       d="M 100.29688,75.800781 C 54.554104,75.076003 14.347656,80.875 14.347656,80.875 l -0.787109,0.113281 -0.478516,0.634766 -9.5742185,12.703125 -0.054687,0.535156 c 0,0 -7.288331,71.315942 -0.6875,150.154292 l 0.060547,0.73633 0.5390625,0.50782 c 0,0 35.2923756,33.15617 97.5683556,33.73242 62.32041,0.57667 95.95704,-34.15821 95.95703,-34.15821 l 0.49415,-0.51367 0.043,-0.71093 c 0,0 6.2308,-102.70956 -0.70117,-150.550786 l -0.0625,-0.433594 -8.98047,-13.404297 -0.91992,-0.08008 c 0,0 -40.82134,-3.616598 -86.46679,-4.339844 z m -0.0606,3.861328 c 44.6833,0.708001 83.89012,4.136009 85.27734,4.257813 l 7.42969,11.091797 c 6.61095,46.341741 0.80642,146.216591 0.66797,148.576171 -1.31498,1.34006 -33.03007,33.09458 -92.64258,32.54297 C 41.37597,275.57944 8.0155332,245.23343 6.5625,243.88867 0.18398314,166.62909 7.1036635,97.242528 7.2519531,95.773438 L 15.677734,84.595703 c 2.150078,-0.304039 40.44948,-5.632487 84.558596,-4.933594 z"
       style="color:#000000;font-style:normal;font-variant:normal;font-weight:normal;font-stretch:normal;font-size:medium;line-height:normal;font-family:sans-serif;text-indent:0;text-align:start;text-decoration:none;text-decoration-line:none;text-decoration-style:solid;text-decoration-color:#000000;letter-spacing:normal;word-spacing:normal;text-transform:none;direction:ltr;block-progression:tb;writing-mode:lr-tb;baseline-shift:baseline;text-anchor:start;white-space:normal;clip-rule:nonzero;display:inline;overflow:visible;visibility:visible;opacity:1;isolation:auto;mix-blend-mode:normal;color-interpolation:sRGB;color-interpolation-filters:linearRGB;solid-color:#000000;solid-opacity:1;fill:#000000;fill-opacity:1;fill-rule:evenodd;stroke:none;stroke-width:3.8614428;stroke-linecap:butt;stroke-linejoin:miter;stroke-miterlimit:4;stroke-dasharray:none;stroke-dashoffset:0;stroke-opacity:1;color-rendering:auto;image-rendering:auto;shape-rendering:auto;text-rendering:auto;enable-background:accumulate" />
    <path
       id="path4447"
       d="m 3.7141382,243.55504 c 0,0 56.8027098,27.55759 96.6032518,27.55759 39.80055,0 95.05761,-26.77023 95.05761,-26.77023"
       style="fill:none;fill-rule:evenodd;stroke:#000000;stroke-width:0.98581636px;stroke-linecap:butt;stroke-linejoin:miter;stroke-opacity:1" />
    <path
       id="path4449"
       d="m 42.216797,61.943359 -7.568359,4.15625 0.521484,14.22461 8.630859,-3.56836 115.523439,0.337891 8.60742,3.113281 0.082,-2.458984 0.43164,-12.884766 -7.33398,-2.578125 -118.894533,-0.341797 z m 0.914062,3.582032 117.365231,0.33789 4.28516,1.50586 -0.26172,7.798828 -4.5625,-1.650391 -116.861327,-0.34375 -4.537109,1.876953 -0.253906,-6.876953 4.826171,-2.648437 z"
       style="color:#000000;font-style:normal;font-variant:normal;font-weight:normal;font-stretch:normal;font-size:medium;line-height:normal;font-family:sans-serif;text-indent:0;text-align:start;text-decoration:none;text-decoration-line:none;text-decoration-style:solid;text-decoration-color:#000000;letter-spacing:normal;word-spacing:normal;text-transform:none;direction:ltr;block-progression:tb;writing-mode:lr-tb;baseline-shift:baseline;text-anchor:start;white-space:normal;clip-rule:nonzero;display:inline;overflow:visible;visibility:visible;opacity:1;isolation:auto;mix-blend-mode:normal;color-interpolation:sRGB;color-interpolation-filters:linearRGB;solid-color:#000000;solid-opacity:1;fill:#000000;fill-opacity:1;fill-rule:evenodd;stroke:none;stroke-width:3.57888246;stroke-linecap:butt;stroke-linejoin:miter;stroke-miterlimit:4;stroke-dasharray:none;stroke-dashoffset:0;stroke-opacity:1;color-rendering:auto;image-rendering:auto;shape-rendering:auto;text-rendering:auto;enable-background:accumulate" />
    <path
       id="path4451"
       d="m 160.66614,64.637472 -0.38641,12.59776"
       style="fill:none;fill-rule:evenodd;stroke:#000000;stroke-width:1.67588794;stroke-linecap:butt;stroke-linejoin:miter;stroke-miterlimit:4;stroke-dasharray:none;stroke-opacity:1" />
    <path
       id="path4453"
       d="m 43.196578,64.243802 0.77282,12.20408"
       style="fill:none;fill-rule:evenodd;stroke:#000000;stroke-width:1.67588794;stroke-linecap:butt;stroke-linejoin:miter;stroke-miterlimit:4;stroke-dasharray:none;stroke-opacity:1" />
    <path
       id="path4455"
       d="m 101.15039,37.265625 c -18.278711,0 -30.955077,1.587891 -30.955078,1.587891 A 1.3309851,1.3309851 0 0 0 69.03125,40.230469 L 70,63.507812 72.660156,63.398438 71.744141,41.382812 c 1.625911,-0.193195 12.576564,-1.455078 29.406249,-1.455078 16.72675,0 26.48889,0.773331 28.08203,0.904297 l -0.36719,22.796875 2.66016,0.04297 0.38867,-24.068359 a 1.3309851,1.3309851 0 0 0 -1.21484,-1.347657 c 0,0 -11.29898,-0.990234 -29.54883,-0.990234 z"
       style="color:#000000;font-style:normal;font-variant:normal;font-weight:normal;font-stretch:normal;font-size:medium;line-height:normal;font-family:sans-serif;text-indent:0;text-align:start;text-decoration:none;text-decoration-line:none;text-decoration-style:solid;text-decoration-color:#000000;letter-spacing:normal;word-spacing:normal;text-transform:none;direction:ltr;block-progression:tb;writing-mode:lr-tb;baseline-shift:baseline;text-anchor:start;white-space:normal;clip-rule:nonzero;display:inline;overflow:visible;visibility:visible;opacity:1;isolation:auto;mix-blend-mode:normal;color-interpolation:sRGB;color-interpolation-filters:linearRGB;solid-color:#000000;solid-opacity:1;fill:#000000;fill-opacity:1;fill-rule:evenodd;stroke:none;stroke-width:2.66170406;stroke-linecap:butt;stroke-linejoin:round;stroke-miterlimit:4;stroke-dasharray:none;stroke-dashoffset:0;stroke-opacity:1;color-rendering:auto;image-rendering:auto;shape-rendering:auto;text-rendering:auto;enable-background:accumulate" />
    <path
       id="path4457"
       d="M 99.988281,0 C 87.830707,0 80.510997,1.4371012 76.123047,2.9570312 73.929072,3.7169963 72.467636,4.4993986 71.519531,5.1386719 70.571427,5.7779452 70.007812,6.4394531 70.007812,6.4394531 a 1.9225342,1.9225342 0 0 0 -0.40625,1.2304688 l 0.386719,16.1757811 a 1.9225342,1.9225342 0 0 0 0.464844,1.207031 c 0,0 0.608327,0.675695 1.5625,1.226563 0.954173,0.550868 2.37078,1.096674 4.226563,1.214844 l 0.24414,-3.835938 c -1.242387,-0.07911 -2.050734,-0.421422 -2.548828,-0.708984 -0.111247,-0.06423 -0.05445,-0.04228 -0.126953,-0.08984 L 73.466797,8.4804688 c 0.09342,-0.07071 -0.0019,-0.016073 0.203125,-0.1542969 C 74.307214,7.8964683 75.460068,7.2551812 77.380859,6.5898438 81.222441,5.2591688 88.135005,3.84375 99.988281,3.84375 c 11.874339,0 19.064289,1.2192815 23.199219,2.3847656 2.06746,0.5827421 3.37146,1.1511988 4.12305,1.5429688 0.14899,0.077665 0.062,0.041701 0.16211,0.097656 l -0.3418,14.8437504 c -0.14635,0.09835 -0.27189,0.213091 -0.65039,0.283203 -0.53204,0.09855 -0.98633,0.07031 -0.98633,0.07031 l -0.2793,3.833985 c 0,0 0.90134,0.07236 1.9668,-0.125 1.06546,-0.197361 2.5693,-0.666771 3.49024,-2.167969 a 1.9225342,1.9225342 0 0 0 0.2832,-0.960938 L 131.3418,6.8789062 a 1.9225342,1.9225342 0 0 0 -0.63086,-1.46875 c 0,0 -0.60771,-0.5195793 -1.62305,-1.0488281 C 128.07255,3.8320794 126.51982,3.1726267 124.23047,2.5273438 119.65178,1.2367779 112.1248,0 99.988281,0 Z"
       style="color:#000000;font-style:normal;font-variant:normal;font-weight:normal;font-stretch:normal;font-size:medium;line-height:normal;font-family:sans-serif;text-indent:0;text-align:start;text-decoration:none;text-decoration-line:none;text-decoration-style:solid;text-decoration-color:#000000;letter-spacing:normal;word-spacing:normal;text-transform:none;direction:ltr;block-progression:tb;writing-mode:lr-tb;baseline-shift:baseline;text-anchor:start;white-space:normal;clip-rule:nonzero;display:inline;overflow:visible;visibility:visible;opacity:1;isolation:auto;mix-blend-mode:normal;color-interpolation:sRGB;color-interpolation-filters:linearRGB;solid-color:#000000;solid-opacity:1;fill:#000000;fill-opacity:1;fill-rule:evenodd;stroke:none;stroke-width:3.84468389;stroke-linecap:butt;stroke-linejoin:round;stroke-miterlimit:4;stroke-dasharray:none;stroke-dashoffset:0;stroke-opacity:1;color-rendering:auto;image-rendering:auto;shape-rendering:auto;text-rendering:auto;enable-background:accumulate" />
    <path
       id="path4459"
       d="m 73.847298,21.415672 c 0,0 7.74942,-2.21602 27.883572,-2.5646 16.65478,-0.28835 25.17266,2.36732 25.17266,2.36732"
       style="fill:none;fill-rule:evenodd;stroke:#000000;stroke-width:1.1829797;stroke-linecap:butt;stroke-linejoin:round;stroke-miterlimit:4;stroke-dasharray:none;stroke-opacity:1" />
    <path
       id="path4461"
       d="m 124.19263,39.582482 0.38728,-15.58491 c 0,0 -2.90455,-1.18366 -23.42994,-1.18366 -20.525422,0 -24.785412,1.77549 -24.785412,1.77549 l 0.58091,14.40124"
       style="fill:none;fill-rule:evenodd;stroke:#000000;stroke-width:2.16879606;stroke-linecap:butt;stroke-linejoin:round;stroke-miterlimit:4;stroke-dasharray:none;stroke-opacity:1" />
  </g>
</svg>
