<?xml version="1.0" encoding="UTF-8" standalone="no"?>
<svg
   xmlns:dc="http://purl.org/dc/elements/1.1/"
   xmlns:cc="http://creativecommons.org/ns#"
   xmlns:rdf="http://www.w3.org/1999/02/22-rdf-syntax-ns#"
   xmlns:svg="http://www.w3.org/2000/svg"
   xmlns="http://www.w3.org/2000/svg"
   xmlns:sodipodi="http://sodipodi.sourceforge.net/DTD/sodipodi-0.dtd"
   xmlns:inkscape="http://www.inkscape.org/namespaces/inkscape"
   height="459"
   version="1.1"
   width="588"
   id="svg2"
   inkscape:version="0.91 r13725"
   sodipodi:docname="tankTurrentRaw.svg">
  <metadata
     id="metadata38">
    <rdf:RDF>
      <cc:Work
         rdf:about="">
        <dc:format>image/svg+xml</dc:format>
        <dc:type
           rdf:resource="http://purl.org/dc/dcmitype/StillImage" />
        <dc:title></dc:title>
      </cc:Work>
    </rdf:RDF>
  </metadata>
  <defs
     id="defs36" />
  <sodipodi:namedview
     pagecolor="#ffffff"
     bordercolor="#666666"
     borderopacity="1"
     objecttolerance="10"
     gridtolerance="10"
     guidetolerance="10"
     inkscape:pageopacity="0"
     inkscape:pageshadow="2"
     inkscape:window-width="720"
     inkscape:window-height="480"
     id="namedview34"
     showgrid="false"
     inkscape:zoom="0.51416122"
     inkscape:cx="294"
     inkscape:cy="229.5"
     inkscape:window-x="0"
     inkscape:window-y="0"
     inkscape:window-maximized="0"
     inkscape:current-layer="svg2" />
  <g
     id="RenderLayer_LineSet"
     inkscape:groupmode="lineset"
     inkscape:label="RenderLayer_LineSet">
    <g
       id="strokes"
       inkscape:groupmode="layer"
       inkscape:label="strokes">
      <path
         d=" M 333.704, 154.132 323.763, 153.055 323.171, 152.991 313.229, 154.068 312.640, 154.132 303.160, 157.315 302.602, 157.502 294.026, 162.644 293.523, 162.946 286.251, 169.810 285.826, 170.212 280.200, 178.479 279.870, 178.964 276.154, 188.248 275.935, 188.797 274.305, 198.663 274.208, 199.252 274.740, 209.238 274.772, 209.842 277.442, 219.479 277.606, 220.072 282.287, 228.909 282.579, 229.461 289.051, 237.084 289.462, 237.567 297.421, 243.621 297.932, 244.009 307.007, 248.209 307.593, 248.480 317.358, 250.631 317.990, 250.770 327.990, 250.770 328.635, 250.770 338.401, 248.618 339.026, 248.480 348.099, 244.275 348.674, 244.009 356.627, 237.947 357.125, 237.567 363.584, 229.933 363.984, 229.461 368.644, 220.613 368.930, 220.072 371.573, 210.427 371.734, 209.842 372.238, 199.855 372.268, 199.252 370.610, 189.390 370.511, 188.797 366.772, 179.522 366.547, 178.964 360.905, 170.708 360.566, 170.212 353.284, 163.358 352.847, 162.946 344.267, 157.810 343.752, 157.502 334.271, 154.322 333.704, 154.132 "
         fill="none"
         stroke="rgb(0, 0, 0)"
         stroke-linecap="butt"
         stroke-linejoin="mitter"
         stroke-opacity="1.0"
         stroke-width="3.0"
         id="path6" />
      <path
         d=" M 289.554, 207.028 289.152, 199.581 290.361, 192.227 293.124, 185.309 297.311, 179.149 302.724, 174.034 309.112, 170.201 316.175, 167.827 323.586, 167.024 330.999, 167.827 338.070, 170.201 344.469, 174.034 349.897, 179.149 354.102, 185.309 356.885, 192.227 358.116, 199.581 357.736, 207.028 355.759, 214.219 352.278, 220.818 347.454, 226.513 341.512, 231.038 334.730, 234.179 327.428, 235.787 327.061, 235.787 319.947, 235.787 312.639, 234.179 305.849, 231.038 299.894, 226.513 295.053, 220.818 291.552, 214.219 289.594, 207.170 289.554, 207.028 "
         fill="none"
         stroke="rgb(0, 0, 0)"
         stroke-linecap="butt"
         stroke-linejoin="mitter"
         stroke-opacity="1.0"
         stroke-width="3.0"
         id="path8" />
      <path
         d=" M 289.594, 207.170 289.205, 199.979 290.401, 192.705 293.134, 185.863 297.275, 179.770 302.629, 174.711 308.946, 170.920 315.932, 168.572 323.262, 167.778 330.594, 168.572 337.587, 170.920 343.915, 174.711 349.284, 179.770 353.443, 185.863 356.195, 192.705 357.413, 199.979 357.036, 207.344 355.081, 214.457 351.638, 220.983 346.866, 226.616 340.989, 231.091 334.282, 234.197 327.061, 235.787 "
         fill="none"
         stroke="rgb(0, 0, 0)"
         stroke-linecap="butt"
         stroke-linejoin="mitter"
         stroke-opacity="1.0"
         stroke-width="3.0"
         id="path10" />
      <path
         d=" M 270.073, 66.571 269.553, 66.523 266.992, 66.128 265.638, 65.689 265.612, 65.223 266.981, 64.752 269.743, 64.298 270.012, 64.271 273.812, 63.888 279.016, 63.545 285.097, 63.291 291.724, 63.141 298.520, 63.107 305.092, 63.189 311.066, 63.382 316.121, 63.673 319.255, 63.971 320.009, 64.042 322.569, 64.468 323.729, 64.926 323.498, 65.392 321.950, 65.846 319.215, 66.267 319.214, 66.267 "
         fill="none"
         stroke="rgb(0, 0, 0)"
         stroke-linecap="butt"
         stroke-linejoin="mitter"
         stroke-opacity="1.0"
         stroke-width="3.0"
         id="path12" />
      <path
         d=" M 323.729, 64.926 323.948, 54.928 324.089, 48.511 322.917, 47.779 320.323, 47.093 316.379, 46.491 311.248, 46.011 305.181, 45.684 298.505, 45.530 291.601, 45.563 284.870, 45.778 278.695, 46.163 273.413, 46.692 269.287, 47.332 266.491, 48.044 265.109, 48.790 265.415, 58.785 265.612, 65.223 "
         fill="none"
         stroke="rgb(0, 0, 0)"
         stroke-linecap="butt"
         stroke-linejoin="mitter"
         stroke-opacity="1.0"
         stroke-width="3.0"
         id="path14" />
      <path
         d=" M 324.683, 106.907 324.920, 96.910 325.157, 86.913 325.295, 81.083 324.094, 80.869 321.408, 80.675 318.958, 80.578 317.307, 80.512 311.960, 80.390 305.627, 80.318 298.654, 80.300 291.442, 80.339 284.415, 80.433 277.978, 80.575 272.485, 80.755 270.453, 80.855 268.209, 80.964 265.329, 81.189 263.929, 81.417 264.255, 91.411 264.581, 101.406 264.761, 106.907 "
         fill="none"
         stroke="rgb(0, 0, 0)"
         stroke-linecap="butt"
         stroke-linejoin="mitter"
         stroke-opacity="1.0"
         stroke-width="3.0"
         id="path16" />
      <path
         d=" M 359.737, 123.464 361.742, 122.160 362.061, 112.165 362.132, 109.945 355.939, 106.907 345.939, 106.907 335.939, 106.907 332.685, 106.907 324.683, 106.907 318.488, 106.907 308.488, 106.907 298.488, 106.907 295.841, 106.907 285.841, 106.907 275.841, 106.907 271.146, 106.907 264.761, 106.907 258.997, 106.907 248.997, 106.907 238.997, 106.907 235.743, 106.907 229.372, 109.945 229.674, 119.941 229.742, 122.160 231.357, 123.267 "
         fill="none"
         stroke="rgb(0, 0, 0)"
         stroke-linecap="butt"
         stroke-linejoin="mitter"
         stroke-opacity="1.0"
         stroke-width="3.0"
         id="path18" />
      <path
         d=" M 236.093, 119.759 235.821, 109.763 235.743, 106.907 "
         fill="none"
         stroke="rgb(0, 0, 0)"
         stroke-linecap="butt"
         stroke-linejoin="mitter"
         stroke-opacity="1.0"
         stroke-width="3.0"
         id="path20" />
      <path
         d=" M 229.742, 122.160 236.093, 119.759 246.093, 119.759 256.093, 119.759 259.208, 119.759 265.180, 119.759 275.180, 119.759 285.180, 119.759 286.598, 119.759 295.830, 119.759 301.402, 119.759 311.402, 119.759 321.402, 119.759 324.379, 119.759 332.452, 119.759 342.452, 119.759 352.452, 119.759 355.566, 119.759 "
         fill="none"
         stroke="rgb(0, 0, 0)"
         stroke-linecap="butt"
         stroke-linejoin="mitter"
         stroke-opacity="1.0"
         stroke-width="3.0"
         id="path22" />
      <path
         d=" M 361.742, 122.160 355.566, 119.759 355.856, 109.763 355.939, 106.907 "
         fill="none"
         stroke="rgb(0, 0, 0)"
         stroke-linecap="butt"
         stroke-linejoin="mitter"
         stroke-opacity="1.0"
         stroke-width="3.0"
         id="path24" />
      <path
         d=" M 265.224, 121.116 255.244, 121.750 245.264, 122.384 239.906, 122.724 231.357, 123.267 221.377, 123.901 211.397, 124.535 205.294, 124.922 199.276, 132.909 197.119, 135.772 196.580, 145.758 196.040, 155.743 195.501, 165.728 194.961, 175.714 194.421, 185.699 193.947, 194.471 194.229, 204.467 194.511, 214.463 194.793, 224.459 195.075, 234.455 195.357, 244.451 195.639, 254.447 195.921, 264.443 196.203, 274.439 196.415, 281.981 202.894, 289.599 204.559, 291.557 212.765, 297.271 221.027, 303.024 230.728, 305.453 240.428, 307.882 250.129, 310.310 259.830, 312.739 269.530, 315.168 279.231, 317.596 288.931, 320.025 294.000, 321.294 303.701, 318.865 313.401, 316.437 323.102, 314.008 332.802, 311.579 342.503, 309.151 352.203, 306.722 361.904, 304.293 366.973, 303.024 375.179, 297.310 383.441, 291.557 389.920, 283.939 391.585, 281.981 391.867, 271.985 392.149, 261.989 392.430, 251.993 392.712, 241.997 392.994, 232.001 393.276, 222.005 393.558, 212.009 393.840, 202.013 394.053, 194.471 393.513, 184.485 392.973, 174.500 392.434, 164.514 391.894, 154.529 391.355, 144.543 390.881, 135.772 384.863, 127.785 382.706, 124.922 372.726, 124.288 362.746, 123.655 359.737, 123.464 351.021, 122.910 341.041, 122.276 331.061, 121.642 324.345, 121.216 "
         fill="none"
         stroke="rgb(0, 0, 0)"
         stroke-linecap="butt"
         stroke-linejoin="mitter"
         stroke-opacity="1.0"
         stroke-width="3.0"
         id="path26" />
      <path
         d=" M 383.441, 291.557 373.740, 293.985 364.039, 296.412 354.339, 298.840 344.638, 301.268 334.937, 303.696 325.236, 306.124 315.536, 308.552 305.835, 310.980 296.134, 313.408 294.000, 313.942 284.299, 311.514 274.598, 309.086 264.898, 306.658 255.197, 304.230 245.496, 301.802 235.795, 299.374 226.094, 296.947 216.394, 294.519 206.693, 292.091 204.559, 291.557 "
         fill="none"
         stroke="rgb(0, 0, 0)"
         stroke-linecap="butt"
         stroke-linejoin="mitter"
         stroke-opacity="1.0"
         stroke-width="3.0"
         id="path28" />
      <path
         d=" M 270.073, 66.571 270.339, 76.567 270.453, 80.855 "
         fill="none"
         stroke="rgb(0, 0, 0)"
         stroke-linecap="butt"
         stroke-linejoin="mitter"
         stroke-opacity="1.0"
         stroke-width="3.0"
         id="path30" />
      <path
         d=" M 318.958, 80.578 319.137, 70.580 319.214, 66.267 319.255, 63.971 "
         fill="none"
         stroke="rgb(0, 0, 0)"
         stroke-linecap="butt"
         stroke-linejoin="mitter"
         stroke-opacity="1.0"
         stroke-width="3.0"
         id="path32" />
    </g>
  </g>
</svg>
